<svg width="96" height="96" viewBox="0 0 96 96" fill="none" xmlns="http://www.w3.org/2000/svg">
<rect width="96" height="96" rx="28" fill="#F7F7F7"/>
<path d="M72.5 89.1907C72.5 96.4757 61.531 94.8438 48 94.8438C34.469 94.8438 23.5 96.4757 23.5 89.1907C23.5 81.9057 34.469 76 48 76C61.531 76 72.5 81.9057 72.5 89.1907Z" fill="url(#paint0_linear_3334_2613)"/>
<g filter="url(#filter0_b_3334_2613)">
<rect width="96" height="96" rx="28" fill="#FDFDFF" fill-opacity="0.2"/>
<rect x="0.5" y="0.5" width="95" height="95" rx="27.5" stroke="url(#paint1_linear_3334_2613)"/>
</g>
<path d="M37.5 52.3748V60.2498C37.5 60.7139 37.6844 61.159 38.0126 61.4872C38.3408 61.8154 38.7859 61.9998 39.25 61.9998L41.1977 62.323C46.8895 63.2677 52.698 63.2677 58.3898 62.323L58.787 62.2571C59.7732 62.0934 60.7824 62.3593 61.5599 62.9876L67.575 67.8483C68.1473 68.3107 69 67.9034 69 67.1677V40.9998C69 40.5356 68.8156 40.0905 68.4874 39.7623C68.1592 39.4341 67.7141 39.2498 67.25 39.2498H58.5M27 30.4998V56.6677C27 57.4034 27.8527 57.8107 28.425 57.3483L34.7001 52.2775C35.3228 51.7743 36.0992 51.4998 36.8999 51.4998H56.75C57.2141 51.4998 57.6592 51.3154 57.9874 50.9872C58.3156 50.659 58.5 50.2139 58.5 49.7498V30.4998C58.5 30.0356 58.3156 29.5905 57.9874 29.2623C57.6592 28.9341 57.2141 28.7498 56.75 28.7498L55.7736 28.6277C47.1249 27.5466 38.3751 27.5466 29.7264 28.6277L28.75 28.7498C28.2859 28.7498 27.8408 28.9341 27.5126 29.2623C27.1844 29.5905 27 30.0356 27 30.4998Z" stroke="#666666" stroke-width="2" stroke-linecap="round" stroke-linejoin="round"/>
<defs>
<filter id="filter0_b_3334_2613" x="-40" y="-40" width="176" height="176" filterUnits="userSpaceOnUse" color-interpolation-filters="sRGB">
<feFlood flood-opacity="0" result="BackgroundImageFix"/>
<feGaussianBlur in="BackgroundImageFix" stdDeviation="20"/>
<feComposite in2="SourceAlpha" operator="in" result="effect1_backgroundBlur_3334_2613"/>
<feBlend mode="normal" in="SourceGraphic" in2="effect1_backgroundBlur_3334_2613" result="shape"/>
</filter>
<linearGradient id="paint0_linear_3334_2613" x1="48" y1="102.773" x2="48" y2="58.7273" gradientUnits="userSpaceOnUse">
<stop stop-color="#FFD9CB"/>
<stop offset="1" stop-color="#FD9A94"/>
</linearGradient>
<linearGradient id="paint1_linear_3334_2613" x1="48" y1="0" x2="48" y2="96" gradientUnits="userSpaceOnUse">
<stop stop-color="#F1F1F1"/>
<stop offset="1" stop-color="#E9E9E9" stop-opacity="0"/>
</linearGradient>
</defs>
</svg>
