<svg width="300" height="300" viewBox="0 0 300 300" fill="none" xmlns="http://www.w3.org/2000/svg">
<rect width="300" height="300" fill="#2D272B"/>
<path d="M194.66 137.716C194.66 149.147 185.393 158.414 173.961 158.414C162.529 158.414 153.262 149.147 153.262 137.716C153.262 126.285 162.529 117.019 173.961 117.019C185.393 117.019 194.66 126.285 194.66 137.716Z" fill="url(#paint0_linear_3334_2567)"/>
<path d="M173.961 168.209C194.262 168.209 211.166 182.702 214.889 201.906H214.877C215.684 206.063 212.419 209.894 208.19 209.894H139.72C135.503 209.894 132.226 206.05 133.033 201.906C136.756 182.702 153.66 168.209 173.961 168.209Z" fill="url(#paint1_linear_3334_2567)"/>
<g filter="url(#filter0_b_3334_2567)">
<path d="M187.781 200.407C183.106 176.336 161.914 158.156 136.468 158.156C111.022 158.156 89.8291 176.336 85.1544 200.407C84.1424 205.612 88.2387 210.419 93.54 210.419H179.384C184.685 210.419 188.781 205.612 187.769 200.407H187.781Z" fill="#FF749F" fill-opacity="0.35"/>
<path d="M142.41 145.189C156.353 141.898 164.988 127.928 161.697 113.986C158.406 100.044 144.435 91.4088 130.492 94.6995C116.549 97.9902 107.914 111.96 111.205 125.903C114.496 139.845 128.466 148.48 142.41 145.189Z" fill="#FF749F" fill-opacity="0.35"/>
<path d="M136.468 159.656C161.117 159.656 181.66 177.221 186.273 200.509C186.277 200.571 186.285 200.632 186.297 200.694C187.122 204.939 183.775 208.919 179.384 208.919H93.54C89.1484 208.919 85.8012 204.939 86.6268 200.694L86.6269 200.693C91.1673 177.314 111.754 159.656 136.468 159.656ZM160.237 114.331C163.338 127.467 155.202 140.629 142.065 143.729C128.928 146.83 115.765 138.694 112.665 125.558C109.564 112.422 117.7 99.2598 130.837 96.1594C143.974 93.059 157.137 101.195 160.237 114.331Z" stroke="url(#paint2_linear_3334_2567)" stroke-width="3" stroke-linecap="round" stroke-linejoin="round"/>
</g>
<defs>
<filter id="filter0_b_3334_2567" x="61" y="70" width="150.924" height="164.419" filterUnits="userSpaceOnUse" color-interpolation-filters="sRGB">
<feFlood flood-opacity="0" result="BackgroundImageFix"/>
<feGaussianBlur in="BackgroundImageFix" stdDeviation="12"/>
<feComposite in2="SourceAlpha" operator="in" result="effect1_backgroundBlur_3334_2567"/>
<feBlend mode="normal" in="SourceGraphic" in2="effect1_backgroundBlur_3334_2567" result="shape"/>
</filter>
<linearGradient id="paint0_linear_3334_2567" x1="179.998" y1="169.675" x2="104.718" y2="202.028" gradientUnits="userSpaceOnUse">
<stop stop-color="#FF759F"/>
<stop offset="1" stop-color="#FF196E"/>
</linearGradient>
<linearGradient id="paint1_linear_3334_2567" x1="179.998" y1="169.675" x2="104.718" y2="202.028" gradientUnits="userSpaceOnUse">
<stop stop-color="#FF759F"/>
<stop offset="1" stop-color="#FF196E"/>
</linearGradient>
<linearGradient id="paint2_linear_3334_2567" x1="101.384" y1="107.563" x2="177.041" y2="190.404" gradientUnits="userSpaceOnUse">
<stop stop-color="white" stop-opacity="0.65"/>
<stop offset="1" stop-color="white" stop-opacity="0"/>
</linearGradient>
</defs>
</svg>
