<svg width="96" height="96" viewBox="0 0 96 96" fill="none" xmlns="http://www.w3.org/2000/svg">
<rect width="96" height="96" rx="28" fill="#F7F7F7"/>
<path d="M72.5 89.1907C72.5 96.4757 61.531 94.8438 48 94.8438C34.469 94.8438 23.5 96.4757 23.5 89.1907C23.5 81.9057 34.469 76 48 76C61.531 76 72.5 81.9057 72.5 89.1907Z" fill="url(#paint0_linear_3421_7873)"/>
<g filter="url(#filter0_b_3421_7873)">
<rect width="96" height="96" rx="28" fill="#FDFDFF" fill-opacity="0.2"/>
<rect x="0.5" y="0.5" width="95" height="95" rx="27.5" stroke="url(#paint1_linear_3421_7873)"/>
</g>
<path d="M50.4103 28.051C50.5341 27.0602 49.289 26.5197 48.6498 27.2868L28.8668 51.0263C28.324 51.6776 28.7872 52.6665 29.635 52.6665H48.5L46.5897 67.9487C46.4659 68.9395 47.711 69.48 48.3502 68.7129L68.1332 44.9734C68.676 44.322 68.2128 43.3332 67.365 43.3332H48.5L50.4103 28.051Z" stroke="#666666" stroke-width="2"/>
<defs>
<filter id="filter0_b_3421_7873" x="-40" y="-40" width="176" height="176" filterUnits="userSpaceOnUse" color-interpolation-filters="sRGB">
<feFlood flood-opacity="0" result="BackgroundImageFix"/>
<feGaussianBlur in="BackgroundImageFix" stdDeviation="20"/>
<feComposite in2="SourceAlpha" operator="in" result="effect1_backgroundBlur_3421_7873"/>
<feBlend mode="normal" in="SourceGraphic" in2="effect1_backgroundBlur_3421_7873" result="shape"/>
</filter>
<linearGradient id="paint0_linear_3421_7873" x1="48" y1="102.773" x2="48" y2="58.7273" gradientUnits="userSpaceOnUse">
<stop stop-color="#FFD9CB"/>
<stop offset="1" stop-color="#FD9A94"/>
</linearGradient>
<linearGradient id="paint1_linear_3421_7873" x1="48" y1="0" x2="48" y2="96" gradientUnits="userSpaceOnUse">
<stop stop-color="#F1F1F1"/>
<stop offset="1" stop-color="#E9E9E9" stop-opacity="0"/>
</linearGradient>
</defs>
</svg>
