<svg width="174" height="24" viewBox="0 0 174 24" fill="none" xmlns="http://www.w3.org/2000/svg">
<path d="M0 20.1139V3.04829H3.16371V20.1139H0Z" fill="#150E12"/>
<path d="M8.88405 20.1139H5.88198V7.57448H8.83786V9.32953C9.50755 8.05943 10.9624 7.25118 12.7867 7.25118C14.1492 7.25118 15.3269 7.71304 16.2737 8.61365C17.2205 9.51427 17.7055 10.7844 17.7055 12.4701V20.1139H14.6803V13.3015C14.6803 11.2 13.595 9.99922 11.9323 9.99922C10.1541 9.99922 8.88405 11.3848 8.88405 13.3477V20.1139Z" fill="#150E12"/>
<path d="M27.6783 17.0194L28.6251 19.3749C27.6321 20.0677 26.4082 20.4141 24.9996 20.4141C22.1591 20.4141 20.7043 18.7283 20.7043 15.5184V10.1147H18.626V7.57448H20.7505V3.14066H23.7295V7.57448H27.9323V10.1147H23.7295V15.4029C23.7295 16.904 24.3299 17.666 25.5538 17.666C26.2466 17.666 26.9624 17.4582 27.6783 17.0194Z" fill="#150E12"/>
<path d="M46.0454 20.1139H43.0433V7.57448H45.9299V9.30644C46.692 7.94396 47.8697 7.25118 49.4169 7.25118C49.9481 7.25118 50.4561 7.34355 50.918 7.5052L50.6639 10.3918C50.1559 10.2301 49.671 10.1378 49.2091 10.1378C47.3386 10.1378 46.0454 11.3848 46.0454 13.9943V20.1139Z" fill="#150E12"/>
<path d="M61.0685 9.16788V7.57448H63.932V20.1139H61.0685V18.5666C59.9831 19.7906 58.6207 20.4141 56.9811 20.4141C55.1798 20.4141 53.7019 19.7906 52.5242 18.5205C51.3464 17.2504 50.7691 15.657 50.7691 13.7864C50.7691 11.9159 51.3464 10.3456 52.5242 9.12169C53.7019 7.89778 55.2029 7.27427 56.9811 7.27427C58.5745 7.27427 59.937 7.89778 61.0685 9.16788ZM61.1378 13.8326C61.1378 12.7704 60.7914 11.8697 60.0986 11.1308C59.4058 10.3918 58.5283 10.0223 57.4429 10.0223C56.3576 10.0223 55.4801 10.3918 54.7873 11.1308C54.1176 11.8697 53.7712 12.7704 53.7712 13.8326C53.7712 14.918 54.1176 15.8186 54.7873 16.5576C55.4801 17.2965 56.3576 17.666 57.4429 17.666C58.5283 17.666 59.4058 17.2965 60.0986 16.5576C60.7914 15.8186 61.1378 14.918 61.1378 13.8326Z" fill="#150E12"/>
<path d="M72.2645 20.391C70.3247 20.391 68.7313 19.7675 67.4843 18.5435C66.2604 17.3196 65.6369 15.7493 65.6369 13.8326C65.6369 11.9159 66.2604 10.3456 67.5074 9.12169C68.7544 7.89778 70.3709 7.27427 72.3569 7.27427C74.9202 7.27427 77.1602 8.52128 78.1763 10.7151L75.7284 12.0314C74.9895 10.8075 73.7887 10.0454 72.4031 10.0454C71.3177 10.0454 70.4171 10.4149 69.7012 11.1308C68.9854 11.8466 68.639 12.7473 68.639 13.8326C68.639 14.918 68.9854 15.8186 69.6781 16.5345C70.3709 17.2504 71.2485 17.6198 72.3107 17.6198C73.6963 17.6198 75.0588 16.8347 75.6823 15.657L78.1301 17.0887C77.0447 19.0978 74.8278 20.391 72.2645 20.391Z" fill="#150E12"/>
<path d="M87.4264 17.0194L88.3732 19.3749C87.3802 20.0677 86.1563 20.4141 84.7476 20.4141C81.9072 20.4141 80.4524 18.7283 80.4524 15.5184V10.1147H78.374V7.57448H80.4986V3.14066H83.4775V7.57448H89.3299V10.1147H83.4775V15.4029C83.4775 16.904 84.0779 17.666 85.3019 17.666C85.9946 17.666 86.7105 17.4582 87.4264 17.0194Z" fill="#150E12"/>
<path d="M92.348 7.57448V20.1139H89.3229V7.57448H92.348Z" fill="#150E12"/>
<path d="M99.9616 15.9803L103.218 7.57448H106.52L101.047 20.0908H98.7839L93.334 7.57448H96.6594L99.9616 15.9803Z" fill="#150E12"/>
<path d="M90.7599 1.92577L92.3296 4.64475L89.3299 6.37663L87.76 3.65773L90.7599 1.92577Z" fill="#150E12"/>
<path fill-rule="evenodd" clip-rule="evenodd" d="M30.6948 15.0279H41.6495V13.7908C41.6495 10.033 38.6032 6.98664 34.8454 6.98664C31.0875 6.98664 28.0412 10.033 28.0412 13.7908C28.0412 17.5486 31.0875 20.5949 34.8454 20.5949C37.0948 20.5949 39.0893 19.502 40.326 17.8236L38.3341 16.3559C37.5437 17.4287 36.2754 18.1207 34.8454 18.1207C32.8839 18.1207 31.2271 16.8164 30.6948 15.0279ZM34.8454 9.46087C32.8839 9.46087 31.2271 10.7651 30.6948 12.5537H38.996C38.4637 10.7651 36.8068 9.46087 34.8454 9.46087Z" fill="#150E12"/>
<path fill-rule="evenodd" clip-rule="evenodd" d="M109.045 15.0279H120V13.7908C120 10.033 116.954 6.98664 113.196 6.98664C109.438 6.98664 106.392 10.033 106.392 13.7908C106.392 17.5486 109.438 20.5949 113.196 20.5949C115.445 20.5949 117.44 19.502 118.677 17.8236L116.685 16.3559C115.894 17.4287 114.626 18.1207 113.196 18.1207C111.234 18.1207 109.578 16.8164 109.045 15.0279ZM113.196 9.46087C111.234 9.46087 109.578 10.7651 109.045 12.5537H117.346C116.814 10.7651 115.157 9.46087 113.196 9.46087Z" fill="#150E12"/>
<path d="M132.455 11.9999C132.455 8.7066 135.125 6.03689 138.418 6.03689C140.797 6.03689 142.85 7.42971 143.807 9.4443L140.122 9.4443C138.711 9.4443 137.566 10.5885 137.566 11.9999C137.566 13.4112 138.711 14.5554 140.122 14.5554H149.196C149.39 13.735 149.492 12.8794 149.492 11.9999C149.492 5.88381 144.534 0.925781 138.418 0.925781C132.302 0.925781 127.344 5.88381 127.344 11.9999C127.344 18.1159 132.302 23.0739 138.418 23.0739C142.691 23.0739 146.398 20.6545 148.245 17.111H141.491C140.594 17.6517 139.542 17.9628 138.418 17.9628C135.125 17.9628 132.455 15.2931 132.455 11.9999Z" fill="url(#paint0_linear_3083_2531)"/>
<path fill-rule="evenodd" clip-rule="evenodd" d="M172.09 22.246C171.092 23.244 169.474 23.244 168.476 22.246L162.806 16.5754C161.808 15.5773 161.808 13.9593 162.806 12.9613C163.804 11.9632 165.422 11.9632 166.42 12.9613L172.09 18.6319C173.088 19.6299 173.088 21.248 172.09 22.246Z" fill="url(#paint1_linear_3083_2531)"/>
<path fill-rule="evenodd" clip-rule="evenodd" d="M162.27 6.03689C158.977 6.03689 156.307 8.7066 156.307 11.9999C156.307 15.2931 158.977 17.9628 162.27 17.9628C165.563 17.9628 168.233 15.2931 168.233 11.9999C168.233 8.7066 165.563 6.03689 162.27 6.03689ZM151.196 11.9999C151.196 5.88381 156.154 0.925781 162.27 0.925781C168.386 0.925781 173.344 5.88381 173.344 11.9999C173.344 18.1159 168.386 23.0739 162.27 23.0739C156.154 23.0739 151.196 18.1159 151.196 11.9999Z" fill="url(#paint2_linear_3083_2531)"/>
<defs>
<linearGradient id="paint0_linear_3083_2531" x1="132.5" y1="-8.5" x2="166.5" y2="27" gradientUnits="userSpaceOnUse">
<stop stop-color="#DD3C45"/>
<stop offset="1" stop-color="#9F2D4A"/>
</linearGradient>
<linearGradient id="paint1_linear_3083_2531" x1="132.5" y1="-8.5" x2="166.5" y2="27" gradientUnits="userSpaceOnUse">
<stop stop-color="#DD3C45"/>
<stop offset="1" stop-color="#9F2D4A"/>
</linearGradient>
<linearGradient id="paint2_linear_3083_2531" x1="132.5" y1="-8.5" x2="166.5" y2="27" gradientUnits="userSpaceOnUse">
<stop stop-color="#DD3C45"/>
<stop offset="1" stop-color="#9F2D4A"/>
</linearGradient>
</defs>
</svg>
