<svg width="96" height="96" viewBox="0 0 96 96" fill="none" xmlns="http://www.w3.org/2000/svg">
<rect width="96" height="96" rx="28" fill="#F7F7F7"/>
<path d="M72.5 89.1907C72.5 96.4757 61.531 94.8438 48 94.8438C34.469 94.8438 23.5 96.4757 23.5 89.1907C23.5 81.9057 34.469 76 48 76C61.531 76 72.5 81.9057 72.5 89.1907Z" fill="url(#paint0_linear_3334_2624)"/>
<g filter="url(#filter0_b_3334_2624)">
<rect width="96" height="96" rx="28" fill="#FDFDFF" fill-opacity="0.2"/>
<rect x="0.5" y="0.5" width="95" height="95" rx="27.5" stroke="url(#paint1_linear_3334_2624)"/>
</g>
<path d="M48 53.9091C51.5396 53.9091 54.4091 51.0396 54.4091 47.5C54.4091 43.9604 51.5396 41.0909 48 41.0909C44.4604 41.0909 41.5909 43.9604 41.5909 47.5C41.5909 51.0396 44.4604 53.9091 48 53.9091Z" stroke="#666666" stroke-width="2" stroke-linecap="round" stroke-linejoin="round"/>
<path d="M63.8091 53.9091C63.5247 54.5535 63.4399 55.2682 63.5655 55.9613C63.6912 56.6543 64.0216 57.2938 64.5141 57.7973L64.6423 57.9255C65.0395 58.3223 65.3547 58.7935 65.5697 59.3122C65.7847 59.8309 65.8954 60.3869 65.8954 60.9484C65.8954 61.5099 65.7847 62.0659 65.5697 62.5846C65.3547 63.1033 65.0395 63.5745 64.6423 63.9714C64.2455 64.3686 63.7742 64.6838 63.2555 64.8988C62.7368 65.1138 62.1808 65.2245 61.6193 65.2245C61.0578 65.2245 60.5018 65.1138 59.9831 64.8988C59.4644 64.6838 58.9932 64.3686 58.5964 63.9714L58.4682 63.8432C57.9647 63.3507 57.3252 63.0203 56.6322 62.8946C55.9391 62.769 55.2244 62.8538 54.58 63.1382C53.9481 63.409 53.4092 63.8587 53.0297 64.4318C52.6501 65.005 52.4464 65.6766 52.4436 66.3641V66.7273C52.4436 67.8605 51.9935 68.9473 51.1922 69.7485C50.3909 70.5498 49.3041 71 48.1709 71C47.0377 71 45.9509 70.5498 45.1496 69.7485C44.3483 68.9473 43.8982 67.8605 43.8982 66.7273V66.535C43.8816 65.8279 43.6528 65.1421 43.2413 64.5668C42.8298 63.9915 42.2548 63.5532 41.5909 63.3091C40.9465 63.0247 40.2318 62.9399 39.5387 63.0655C38.8457 63.1912 38.2062 63.5216 37.7027 64.0141L37.5745 64.1423C37.1777 64.5395 36.7065 64.8547 36.1878 65.0697C35.6691 65.2847 35.1131 65.3954 34.5516 65.3954C33.9901 65.3954 33.4341 65.2847 32.9154 65.0697C32.3967 64.8547 31.9255 64.5395 31.5286 64.1423C31.1314 63.7455 30.8162 63.2742 30.6012 62.7555C30.3862 62.2368 30.2755 61.6808 30.2755 61.1193C30.2755 60.5578 30.3862 60.0018 30.6012 59.4831C30.8162 58.9644 31.1314 58.4932 31.5286 58.0964L31.6568 57.9682C32.1493 57.4647 32.4797 56.8252 32.6054 56.1322C32.731 55.4391 32.6462 54.7244 32.3618 54.08C32.091 53.4481 31.6413 52.9092 31.0682 52.5297C30.495 52.1501 29.8234 51.9464 29.1359 51.9436H28.7727C27.6395 51.9436 26.5527 51.4935 25.7515 50.6922C24.9502 49.8909 24.5 48.8041 24.5 47.6709C24.5 46.5377 24.9502 45.4509 25.7515 44.6496C26.5527 43.8483 27.6395 43.3982 28.7727 43.3982H28.965C29.6721 43.3816 30.3579 43.1528 30.9332 42.7413C31.5085 42.3298 31.9468 41.7548 32.1909 41.0909C32.4753 40.4465 32.5601 39.7318 32.4345 39.0387C32.3088 38.3457 31.9784 37.7062 31.4859 37.2027L31.3577 37.0745C30.9605 36.6777 30.6453 36.2065 30.4303 35.6878C30.2153 35.1691 30.1046 34.6131 30.1046 34.0516C30.1046 33.4901 30.2153 32.9341 30.4303 32.4154C30.6453 31.8967 30.9605 31.4255 31.3577 31.0286C31.7545 30.6314 32.2258 30.3162 32.7445 30.1012C33.2632 29.8862 33.8192 29.7755 34.3807 29.7755C34.9422 29.7755 35.4982 29.8862 36.0169 30.1012C36.5356 30.3162 37.0068 30.6314 37.4036 31.0286L37.5318 31.1568C38.0353 31.6493 38.6748 31.9797 39.3678 32.1054C40.0609 32.231 40.7756 32.1462 41.42 31.8618H41.5909C42.2228 31.591 42.7617 31.1413 43.1413 30.5682C43.5208 29.995 43.7245 29.3234 43.7273 28.6359V28.2727C43.7273 27.1395 44.1774 26.0527 44.9787 25.2515C45.78 24.4502 46.8668 24 48 24C49.1332 24 50.22 24.4502 51.0213 25.2515C51.8226 26.0527 52.2727 27.1395 52.2727 28.2727V28.465C52.2755 29.1525 52.4792 29.8241 52.8587 30.3973C53.2383 30.9704 53.7772 31.4201 54.4091 31.6909C55.0535 31.9753 55.7682 32.0601 56.4613 31.9345C57.1543 31.8088 57.7938 31.4784 58.2973 30.9859L58.4255 30.8577C58.8223 30.4605 59.2935 30.1453 59.8122 29.9303C60.3309 29.7153 60.8869 29.6046 61.4484 29.6046C62.0099 29.6046 62.5659 29.7153 63.0846 29.9303C63.6033 30.1453 64.0745 30.4605 64.4714 30.8577C64.8686 31.2545 65.1838 31.7258 65.3988 32.2445C65.6138 32.7632 65.7245 33.3192 65.7245 33.8807C65.7245 34.4422 65.6138 34.9982 65.3988 35.5169C65.1838 36.0356 64.8686 36.5068 64.4714 36.9036L64.3432 37.0318C63.8507 37.5353 63.5203 38.1748 63.3946 38.8678C63.269 39.5609 63.3538 40.2756 63.6382 40.92V41.0909C63.909 41.7228 64.3587 42.2617 64.9318 42.6413C65.505 43.0208 66.1766 43.2245 66.8641 43.2273H67.2273C68.3605 43.2273 69.4473 43.6774 70.2485 44.4787C71.0498 45.28 71.5 46.3668 71.5 47.5C71.5 48.6332 71.0498 49.72 70.2485 50.5213C69.4473 51.3226 68.3605 51.7727 67.2273 51.7727H67.035C66.3475 51.7755 65.6759 51.9792 65.1027 52.3587C64.5296 52.7383 64.0799 53.2772 63.8091 53.9091Z" stroke="#666666" stroke-width="2" stroke-linecap="round" stroke-linejoin="round"/>
<defs>
<filter id="filter0_b_3334_2624" x="-40" y="-40" width="176" height="176" filterUnits="userSpaceOnUse" color-interpolation-filters="sRGB">
<feFlood flood-opacity="0" result="BackgroundImageFix"/>
<feGaussianBlur in="BackgroundImageFix" stdDeviation="20"/>
<feComposite in2="SourceAlpha" operator="in" result="effect1_backgroundBlur_3334_2624"/>
<feBlend mode="normal" in="SourceGraphic" in2="effect1_backgroundBlur_3334_2624" result="shape"/>
</filter>
<linearGradient id="paint0_linear_3334_2624" x1="48" y1="102.773" x2="48" y2="58.7273" gradientUnits="userSpaceOnUse">
<stop stop-color="#FFD9CB"/>
<stop offset="1" stop-color="#FD9A94"/>
</linearGradient>
<linearGradient id="paint1_linear_3334_2624" x1="48" y1="0" x2="48" y2="96" gradientUnits="userSpaceOnUse">
<stop stop-color="#F1F1F1"/>
<stop offset="1" stop-color="#E9E9E9" stop-opacity="0"/>
</linearGradient>
</defs>
</svg>
