<svg width="96" height="96" viewBox="0 0 96 96" fill="none" xmlns="http://www.w3.org/2000/svg">
<rect width="96" height="96" rx="28" fill="#F7F7F7"/>
<path d="M72.5 89.1907C72.5 96.4757 61.531 94.8438 48 94.8438C34.469 94.8438 23.5 96.4757 23.5 89.1907C23.5 81.9057 34.469 76 48 76C61.531 76 72.5 81.9057 72.5 89.1907Z" fill="url(#paint0_linear_3334_2601)"/>
<g filter="url(#filter0_b_3334_2601)">
<rect width="96" height="96" rx="28" fill="#FDFDFF" fill-opacity="0.2"/>
<rect x="0.5" y="0.5" width="95" height="95" rx="27.5" stroke="url(#paint1_linear_3334_2601)"/>
</g>
<path d="M41.0363 31.3857C42.7328 26.801 49.2172 26.801 50.9137 31.3857C53.1805 37.5116 58.0105 42.3416 64.1365 44.6084C68.7212 46.3049 68.7212 52.7894 64.1365 54.4859C58.0105 56.7527 53.1805 61.5827 50.9137 67.7086C49.2172 72.2933 42.7328 72.2933 41.0363 67.7086C38.7694 61.5827 33.9395 56.7527 27.8135 54.4859C23.2288 52.7894 23.2288 46.3049 27.8135 44.6084C33.9395 42.3416 38.7694 37.5116 41.0363 31.3857Z" stroke="#666666" stroke-width="2"/>
<path d="M64.3683 25.3435C64.8322 24.0899 66.6053 24.0899 67.0692 25.3435C67.689 27.0186 69.0097 28.3393 70.6848 28.9591C71.9384 29.423 71.9384 31.1961 70.6848 31.66C69.0097 32.2798 67.689 33.6005 67.0692 35.2756C66.6053 36.5292 64.8322 36.5292 64.3683 35.2756C63.7485 33.6005 62.4278 32.2798 60.7527 31.66C59.4991 31.1961 59.4991 29.423 60.7527 28.9591C62.4278 28.3393 63.7485 27.0186 64.3683 25.3435Z" stroke="#666666" stroke-width="2"/>
<defs>
<filter id="filter0_b_3334_2601" x="-40" y="-40" width="176" height="176" filterUnits="userSpaceOnUse" color-interpolation-filters="sRGB">
<feFlood flood-opacity="0" result="BackgroundImageFix"/>
<feGaussianBlur in="BackgroundImageFix" stdDeviation="20"/>
<feComposite in2="SourceAlpha" operator="in" result="effect1_backgroundBlur_3334_2601"/>
<feBlend mode="normal" in="SourceGraphic" in2="effect1_backgroundBlur_3334_2601" result="shape"/>
</filter>
<linearGradient id="paint0_linear_3334_2601" x1="48" y1="102.773" x2="48" y2="58.7273" gradientUnits="userSpaceOnUse">
<stop stop-color="#FFD9CB"/>
<stop offset="1" stop-color="#FD9A94"/>
</linearGradient>
<linearGradient id="paint1_linear_3334_2601" x1="48" y1="0" x2="48" y2="96" gradientUnits="userSpaceOnUse">
<stop stop-color="#F1F1F1"/>
<stop offset="1" stop-color="#E9E9E9" stop-opacity="0"/>
</linearGradient>
</defs>
</svg>
