<svg width="300" height="300" viewBox="0 0 300 300" fill="none" xmlns="http://www.w3.org/2000/svg">
<rect width="300" height="300" fill="#2D272B"/>
<path d="M147.191 164.059C146.551 165.381 146.601 166.935 147.324 168.215L157.586 185.8C158.455 187.291 158.37 189.151 157.371 190.56C156.411 191.993 154.712 192.742 153.006 192.497L132.839 189.835C132.135 189.736 131.419 189.807 130.743 190.031L129.706 190.409C129.366 190.594 129.056 190.837 128.798 191.13L115.086 206.188C114.401 206.915 113.507 207.41 112.523 207.599C110.101 207.996 107.803 206.389 107.345 203.978L103.889 183.912C103.614 182.456 102.65 181.226 101.303 180.611L82.6063 172.256C81.0422 171.556 80.0269 170.019 80.0012 168.307C79.9617 166.605 80.8672 165.023 82.3567 164.198L100.367 154.509C101.759 153.832 102.708 152.489 102.884 150.951L105.002 130.718C105.062 130.263 105.19 129.818 105.391 129.406L105.638 129.013C105.745 128.749 105.891 128.509 106.072 128.291L106.433 127.986L106.986 127.481L108.597 126.894C110.09 126.519 111.67 126.918 112.801 127.962L127.524 141.971C128.593 142.999 130.099 143.433 131.549 143.143L151.57 138.971C153.261 138.615 155.008 139.235 156.098 140.571C157.158 141.923 157.34 143.764 156.564 145.299L147.191 164.059Z" fill="url(#paint0_linear_3334_2545)"/>
<g filter="url(#filter0_b_3334_2545)">
<path d="M193.885 161.104C192.27 162.037 191.215 163.707 191.063 165.567L189.321 191.367C189.171 193.553 187.756 195.448 185.702 196.217C183.672 197.04 181.351 196.617 179.733 195.143L160.428 177.974C159.759 177.369 158.957 176.932 158.085 176.687L156.726 176.345C156.237 176.297 155.737 176.331 155.258 176.456L130.112 182.515C128.875 182.791 127.581 182.674 126.412 182.172C123.583 180.864 122.313 177.537 123.549 174.675L134.215 151.118C134.963 149.391 134.827 147.41 133.849 145.805L120.147 123.697C119.002 121.847 119.03 119.508 120.222 117.69C121.394 115.873 123.473 114.854 125.627 115.049L151.465 117.696C153.41 117.977 155.366 117.242 156.647 115.751L173.291 95.9892C173.678 95.5531 174.13 95.1761 174.635 94.8869L175.175 94.6493C175.476 94.4477 175.801 94.3 176.146 94.2001L176.743 94.1369L177.684 94L179.796 94.5306C181.633 95.2002 183.009 96.746 183.454 98.6494L188.95 123.868C189.341 125.71 190.614 127.24 192.346 127.969L216.367 137.85C218.398 138.68 219.793 140.577 219.986 142.759C220.138 144.935 219.016 147 217.107 148.061L193.885 161.104Z" fill="#FFAC95" fill-opacity="0.4"/>
<path d="M192.935 159.459L192.955 159.447L216.177 146.405L216.184 146.401C217.445 145.7 218.185 144.341 218.092 142.908C217.955 141.441 217.014 140.167 215.648 139.608L215.644 139.607L191.623 129.726L191.609 129.72C189.31 128.753 187.615 126.72 187.093 124.268C187.092 124.266 187.092 124.264 187.092 124.262L181.601 99.0689C181.307 97.828 180.42 96.8121 179.228 96.3469L177.586 95.9342L177.017 96.017C176.992 96.0205 176.968 96.0236 176.943 96.0262L176.543 96.0686C176.429 96.1117 176.326 96.1649 176.231 96.2283C176.139 96.2899 176.042 96.3433 175.94 96.388L175.503 96.5804C175.226 96.7503 174.963 96.9706 174.727 97.2337L158.1 116.975L158.088 116.989C156.393 118.961 153.811 119.94 151.235 119.583L125.446 116.94C124.002 116.813 122.607 117.497 121.819 118.719L121.811 118.733C121.025 119.93 121.005 121.472 121.762 122.697L192.935 159.459ZM192.935 159.459C190.778 160.704 189.373 162.933 189.169 165.412L189.167 165.439L187.425 191.237C187.327 192.678 186.394 193.929 185.036 194.438C185.02 194.444 185.004 194.45 184.989 194.456C183.641 195.002 182.094 194.724 181.011 193.738L180.995 193.724L161.703 176.565C161.701 176.563 161.698 176.561 161.696 176.559C160.804 175.754 159.742 175.18 158.601 174.858C158.583 174.853 158.566 174.849 158.548 174.844L157.189 174.503C157.098 174.48 157.006 174.464 156.912 174.455C156.218 174.386 155.499 174.433 154.798 174.613L129.684 180.664C128.846 180.847 127.975 180.769 127.185 180.436C125.314 179.556 124.473 177.348 125.288 175.442L135.946 151.901L135.958 151.873C136.952 149.581 136.77 146.95 135.471 144.817L135.464 144.804L121.763 122.697L192.935 159.459Z" stroke="url(#paint1_linear_3334_2545)" stroke-width="3.79981" stroke-linecap="round" stroke-linejoin="round"/>
</g>
<defs>
<filter id="filter0_b_3334_2545" x="88.9092" y="63.6016" width="161.489" height="163.429" filterUnits="userSpaceOnUse" color-interpolation-filters="sRGB">
<feFlood flood-opacity="0" result="BackgroundImageFix"/>
<feGaussianBlur in="BackgroundImageFix" stdDeviation="15.1992"/>
<feComposite in2="SourceAlpha" operator="in" result="effect1_backgroundBlur_3334_2545"/>
<feBlend mode="normal" in="SourceGraphic" in2="effect1_backgroundBlur_3334_2545" result="shape"/>
</filter>
<linearGradient id="paint0_linear_3334_2545" x1="85.2703" y1="157.9" x2="169.302" y2="236.633" gradientUnits="userSpaceOnUse">
<stop stop-color="#FFA78F"/>
<stop offset="1" stop-color="#F23E2C"/>
</linearGradient>
<linearGradient id="paint1_linear_3334_2545" x1="135.336" y1="105.957" x2="180.288" y2="183.441" gradientUnits="userSpaceOnUse">
<stop stop-color="white" stop-opacity="0.65"/>
<stop offset="1" stop-color="white" stop-opacity="0"/>
</linearGradient>
</defs>
</svg>
