<svg width="300" height="300" viewBox="0 0 300 300" fill="none" xmlns="http://www.w3.org/2000/svg">
<rect width="300" height="300" fill="#2D272B"/>
<path d="M211.186 110.213H163.118C158.25 110.213 154.304 114.159 154.304 119.027V180.993C154.304 185.861 158.25 189.807 163.118 189.807H211.186C216.054 189.807 220 185.861 220 180.993V119.027C220 114.159 216.054 110.213 211.186 110.213Z" fill="#4096FE"/>
<path d="M136.882 110.213H88.8143C83.9463 110.213 80 114.159 80 119.027V180.993C80 185.861 83.9463 189.807 88.8143 189.807H136.882C141.75 189.807 145.696 185.861 145.696 180.993V119.027C145.696 114.159 141.75 110.213 136.882 110.213Z" fill="#4096FE"/>
<g filter="url(#filter0_b_3334_2559)">
<path d="M182.05 96H118.662C113.794 96 109.848 99.9462 109.848 104.814V195.197C109.848 200.064 113.794 204.011 118.662 204.011H182.05C186.918 204.011 190.864 200.064 190.864 195.197V104.814C190.864 99.9462 186.918 96 182.05 96Z" fill="#3EA0FE" fill-opacity="0.35"/>
<path d="M118.662 97.1667H182.05C186.273 97.1667 189.697 100.591 189.697 104.814V195.197C189.697 199.42 186.273 202.844 182.05 202.844H118.662C114.438 202.844 111.014 199.42 111.014 195.197V104.814C111.014 100.591 114.438 97.1667 118.662 97.1667Z" stroke="url(#paint0_linear_3334_2559)" stroke-width="2.33335" stroke-linecap="round" stroke-linejoin="round"/>
</g>
<g filter="url(#filter1_bd_3334_2559)">
<path d="M162.013 146.804L143.476 136.104C141.008 134.683 137.929 136.459 137.929 139.312V160.711C137.929 163.563 141.008 165.34 143.476 163.919L162.013 153.219C164.48 151.798 164.48 148.235 162.013 146.813V146.804Z" fill="url(#paint1_linear_3334_2559)"/>
<path d="M161.974 153.152L161.974 153.152L143.437 163.851C141.021 165.243 138.006 163.503 138.006 160.711V139.312C138.006 136.519 141.021 134.78 143.437 136.172L161.935 146.848V146.858L161.974 146.881C164.389 148.272 164.389 151.76 161.974 153.152Z" stroke="url(#paint2_linear_3334_2559)" stroke-opacity="0.5" stroke-width="0.155557"/>
</g>
<defs>
<filter id="filter0_b_3334_2559" x="91.1809" y="77.3332" width="118.35" height="145.344" filterUnits="userSpaceOnUse" color-interpolation-filters="sRGB">
<feFlood flood-opacity="0" result="BackgroundImageFix"/>
<feGaussianBlur in="BackgroundImageFix" stdDeviation="9.3334"/>
<feComposite in2="SourceAlpha" operator="in" result="effect1_backgroundBlur_3334_2559"/>
<feBlend mode="normal" in="SourceGraphic" in2="effect1_backgroundBlur_3334_2559" result="shape"/>
</filter>
<filter id="filter1_bd_3334_2559" x="126.262" y="123.937" width="49.2681" height="52.1485" filterUnits="userSpaceOnUse" color-interpolation-filters="sRGB">
<feFlood flood-opacity="0" result="BackgroundImageFix"/>
<feGaussianBlur in="BackgroundImageFix" stdDeviation="5.83338"/>
<feComposite in2="SourceAlpha" operator="in" result="effect1_backgroundBlur_3334_2559"/>
<feColorMatrix in="SourceAlpha" type="matrix" values="0 0 0 0 0 0 0 0 0 0 0 0 0 0 0 0 0 0 127 0" result="hardAlpha"/>
<feOffset dx="3.88892" dy="3.88892"/>
<feGaussianBlur stdDeviation="3.88892"/>
<feColorMatrix type="matrix" values="0 0 0 0 0.15375 0 0 0 0 0.522433 0 0 0 0 0.9 0 0 0 0.5 0"/>
<feBlend mode="normal" in2="effect1_backgroundBlur_3334_2559" result="effect2_dropShadow_3334_2559"/>
<feBlend mode="normal" in="SourceGraphic" in2="effect2_dropShadow_3334_2559" result="shape"/>
</filter>
<linearGradient id="paint0_linear_3334_2559" x1="120.525" y1="102.952" x2="194.358" y2="172.868" gradientUnits="userSpaceOnUse">
<stop stop-color="white" stop-opacity="0.65"/>
<stop offset="1" stop-color="white" stop-opacity="0"/>
</linearGradient>
<linearGradient id="paint1_linear_3334_2559" x1="162.025" y1="140.807" x2="133.13" y2="141.655" gradientUnits="userSpaceOnUse">
<stop stop-color="white"/>
<stop offset="1" stop-color="white" stop-opacity="0.2"/>
</linearGradient>
<linearGradient id="paint2_linear_3334_2559" x1="140.722" y1="145.27" x2="162.745" y2="145.379" gradientUnits="userSpaceOnUse">
<stop stop-color="white"/>
<stop offset="1" stop-color="white" stop-opacity="0"/>
</linearGradient>
</defs>
</svg>
