<svg width="588" height="469" viewBox="0 0 588 469" fill="none" xmlns="http://www.w3.org/2000/svg">
<rect x="0.5" y="0.5" width="587" height="468" fill="#181015"/>
<rect x="0.5" y="0.5" width="587" height="468" stroke="#242424"/>
<g clip-path="url(#clip0_727_4098)">
<g filter="url(#filter0_f_727_4098)">
<path d="M269.903 280.475L269.903 234.603C269.903 226.636 276.359 220.18 284.327 220.18L317.068 220.18C320.402 220.18 323.624 221.335 326.203 223.436L354.239 246.371C361.295 252.139 361.295 262.929 354.239 268.696L326.203 291.631C323.624 293.743 320.402 294.887 317.068 294.887L284.327 294.887C276.359 294.887 269.903 288.431 269.903 280.464L269.903 280.475Z" fill="url(#paint0_linear_727_4098)" fill-opacity="0.7"/>
</g>
<path d="M269.903 280.475L269.903 234.603C269.903 226.636 276.359 220.18 284.327 220.18L317.068 220.18C320.402 220.18 323.624 221.335 326.203 223.436L354.239 246.371C361.295 252.139 361.295 262.929 354.239 268.696L326.203 291.631C323.624 293.743 320.402 294.887 317.068 294.887L284.327 294.887C276.359 294.887 269.903 288.431 269.903 280.464L269.903 280.475Z" fill="url(#paint1_linear_727_4098)"/>
<g filter="url(#filter1_b_727_4098)">
<ellipse cx="285.272" cy="228.559" rx="55.8864" ry="55.8858" fill="url(#paint2_linear_727_4098)"/>
<path d="M339.178 228.559C339.178 258.33 315.043 282.465 285.272 282.465C255.5 282.465 231.365 258.33 231.365 228.559C231.365 198.787 255.5 174.653 285.272 174.653C315.043 174.653 339.178 198.787 339.178 228.559Z" stroke="url(#paint3_linear_727_4098)" stroke-width="3.96"/>
</g>
<path d="M316.008 228.558C316.008 245.533 302.247 259.295 285.271 259.295C268.295 259.295 254.533 245.533 254.533 228.558C254.533 211.582 268.295 197.82 285.271 197.82C302.247 197.82 316.008 211.582 316.008 228.558Z" stroke="white" stroke-width="8.38291"/>
</g>
<defs>
<filter id="filter0_f_727_4098" x="214.39" y="164.667" width="200.654" height="185.734" filterUnits="userSpaceOnUse" color-interpolation-filters="sRGB">
<feFlood flood-opacity="0" result="BackgroundImageFix"/>
<feBlend mode="normal" in="SourceGraphic" in2="BackgroundImageFix" result="shape"/>
<feGaussianBlur stdDeviation="27.7565" result="effect1_foregroundBlur_727_4098"/>
</filter>
<filter id="filter1_b_727_4098" x="204.237" y="147.524" width="162.07" height="162.069" filterUnits="userSpaceOnUse" color-interpolation-filters="sRGB">
<feFlood flood-opacity="0" result="BackgroundImageFix"/>
<feGaussianBlur in="BackgroundImageFix" stdDeviation="12.5744"/>
<feComposite in2="SourceAlpha" operator="in" result="effect1_backgroundBlur_727_4098"/>
<feBlend mode="normal" in="SourceGraphic" in2="effect1_backgroundBlur_727_4098" result="shape"/>
</filter>
<linearGradient id="paint0_linear_727_4098" x1="266.294" y1="257.539" x2="355.454" y2="257.539" gradientUnits="userSpaceOnUse">
<stop stop-color="#FF5C00"/>
<stop offset="0.52" stop-color="#FFCA40"/>
<stop offset="1" stop-color="#FFE0F9"/>
</linearGradient>
<linearGradient id="paint1_linear_727_4098" x1="266.294" y1="257.539" x2="355.454" y2="257.539" gradientUnits="userSpaceOnUse">
<stop stop-color="#FF5C00"/>
<stop offset="0.52" stop-color="#FFCA40"/>
<stop offset="1" stop-color="#FFE0F9"/>
</linearGradient>
<linearGradient id="paint2_linear_727_4098" x1="235.695" y1="278.134" x2="334.847" y2="178.982" gradientUnits="userSpaceOnUse">
<stop stop-color="white" stop-opacity="0.2"/>
<stop offset="1" stop-color="white" stop-opacity="0.49"/>
</linearGradient>
<linearGradient id="paint3_linear_727_4098" x1="237.275" y1="181.463" x2="330.706" y2="281.363" gradientUnits="userSpaceOnUse">
<stop stop-color="white"/>
<stop offset="1" stop-color="white" stop-opacity="0"/>
</linearGradient>
<clipPath id="clip0_727_4098">
<rect width="180" height="180" fill="white" transform="translate(204 144.5)"/>
</clipPath>
</defs>
</svg>
