<svg width="224" height="28" viewBox="0 0 224 28" fill="none" xmlns="http://www.w3.org/2000/svg">
<path d="M0 23.3504V1.91942H3.973V23.3504H0Z" fill="#150E12"/>
<path d="M11.1566 23.3504H7.38662V7.60342H11.0986V9.80742C11.9396 8.21242 13.7666 7.19742 16.0576 7.19742C17.7686 7.19742 19.2476 7.77742 20.4366 8.90842C21.6256 10.0394 22.2346 11.6344 22.2346 13.7514V23.3504H18.4356V14.7954C18.4356 12.1564 17.0726 10.6484 14.9846 10.6484C12.7516 10.6484 11.1566 12.3884 11.1566 14.8534V23.3504Z" fill="#150E12"/>
<path d="M34.7585 19.4644L35.9475 22.4224C34.7005 23.2924 33.1635 23.7274 31.3945 23.7274C27.8275 23.7274 26.0005 21.6104 26.0005 17.5794V10.7934H23.3905V7.60342H26.0585V2.03542H29.7995V7.60342H35.0775V10.7934H29.7995V17.4344C29.7995 19.3194 30.5535 20.2764 32.0905 20.2764C32.9605 20.2764 33.8595 20.0154 34.7585 19.4644Z" fill="#150E12"/>
<path d="M57.824 23.3504H54.054V7.60342H57.679V9.77842C58.636 8.06742 60.115 7.19742 62.058 7.19742C62.725 7.19742 63.363 7.31342 63.943 7.51642L63.624 11.1414C62.986 10.9384 62.377 10.8224 61.797 10.8224C59.448 10.8224 57.824 12.3884 57.824 15.6654V23.3504Z" fill="#150E12"/>
<path d="M76.69 9.60442V7.60342H80.286V23.3504H76.69V21.4074C75.327 22.9444 73.616 23.7274 71.557 23.7274C69.295 23.7274 67.439 22.9444 65.96 21.3494C64.481 19.7544 63.756 17.7534 63.756 15.4044C63.756 13.0554 64.481 11.0834 65.96 9.54642C67.439 8.00942 69.324 7.22642 71.557 7.22642C73.558 7.22642 75.269 8.00942 76.69 9.60442ZM76.777 15.4624C76.777 14.1284 76.342 12.9974 75.472 12.0694C74.602 11.1414 73.5 10.6774 72.137 10.6774C70.774 10.6774 69.6721 11.1414 68.802 12.0694C67.9611 12.9974 67.526 14.1284 67.526 15.4624C67.526 16.8254 67.9611 17.9564 68.802 18.8844C69.6721 19.8124 70.774 20.2764 72.137 20.2764C73.5 20.2764 74.602 19.8124 75.472 18.8844C76.342 17.9564 76.777 16.8254 76.777 15.4624Z" fill="#150E12"/>
<path d="M90.7501 23.6984C88.3141 23.6984 86.3131 22.9154 84.7471 21.3784C83.2101 19.8414 82.4271 17.8694 82.4271 15.4624C82.4271 13.0554 83.2101 11.0834 84.7761 9.54642C86.3421 8.00942 88.3721 7.22642 90.8661 7.22642C94.0851 7.22642 96.8981 8.79242 98.1741 11.5474L95.1001 13.2004C94.1721 11.6634 92.6641 10.7064 90.9241 10.7064C89.5611 10.7064 88.4301 11.1704 87.5311 12.0694C86.6321 12.9684 86.1971 14.0994 86.1971 15.4624C86.1971 16.8254 86.6321 17.9564 87.5021 18.8554C88.3721 19.7544 89.4741 20.2184 90.8081 20.2184C92.5481 20.2184 94.2591 19.2324 95.0421 17.7534L98.1161 19.5514C96.7531 22.0744 93.9691 23.6984 90.7501 23.6984Z" fill="#150E12"/>
<path d="M109.79 19.4644L110.979 22.4224C109.732 23.2924 108.195 23.7274 106.426 23.7274C102.859 23.7274 101.032 21.6104 101.032 17.5794V10.7934H98.4224V7.60342H101.09V2.03542H104.831V7.60342H112.181V10.7934H104.831V17.4344C104.831 19.3194 105.585 20.2764 107.122 20.2764C107.992 20.2764 108.891 20.0154 109.79 19.4644Z" fill="#150E12"/>
<path d="M115.971 7.60342V23.3504H112.172V7.60342H115.971Z" fill="#150E12"/>
<path d="M125.532 18.1594L129.621 7.60342H133.768L126.895 23.3214H124.053L117.209 7.60342H121.385L125.532 18.1594Z" fill="#150E12"/>
<path d="M113.977 0.509749L115.948 3.92426L112.181 6.09916L110.209 2.68475L113.977 0.509749Z" fill="#150E12"/>
<path fill-rule="evenodd" clip-rule="evenodd" d="M38.5466 16.9634H52.3036V15.4099C52.3036 10.6908 48.478 6.86522 43.7589 6.86522C39.0399 6.86522 35.2143 10.6908 35.2143 15.4099C35.2143 20.1289 39.0399 23.9545 43.7589 23.9545C46.5838 23.9545 49.0885 22.5821 50.6415 20.4743L48.1401 18.6311C47.1475 19.9783 45.5548 20.8474 43.7589 20.8474C41.2957 20.8474 39.2151 19.2095 38.5466 16.9634ZM43.7589 9.97236C41.2957 9.97236 39.2151 11.6102 38.5466 13.8563H48.9713C48.3028 11.6102 46.2221 9.97236 43.7589 9.97236Z" fill="#150E12"/>
<path fill-rule="evenodd" clip-rule="evenodd" d="M136.939 16.9634H150.696V15.4099C150.696 10.6908 146.871 6.86522 142.152 6.86522C137.433 6.86522 133.607 10.6908 133.607 15.4099C133.607 20.1289 137.433 23.9545 142.152 23.9545C144.977 23.9545 147.481 22.5821 149.034 20.4743L146.533 18.6311C145.54 19.9783 143.948 20.8474 142.152 20.8474C139.689 20.8474 137.608 19.2095 136.939 16.9634ZM142.152 9.97236C139.689 9.97236 137.608 11.6102 136.939 13.8563H147.364C146.696 11.6102 144.615 9.97236 142.152 9.97236Z" fill="#150E12"/>
<path d="M160.281 14.2418C160.281 11.0424 162.874 8.4488 166.074 8.4488C168.385 8.4488 170.38 9.80192 171.309 11.7591L167.729 11.7591C166.358 11.7591 165.246 12.8706 165.246 14.2418C165.246 15.6129 166.358 16.7245 167.729 16.7245H176.544C176.733 15.9275 176.832 15.0963 176.832 14.2418C176.832 8.30009 172.015 3.4834 166.074 3.4834C160.132 3.4834 155.315 8.30009 155.315 14.2418C155.315 20.1835 160.132 25.0001 166.074 25.0001C170.224 25.0001 173.826 22.6497 175.62 19.2072H169.059C168.187 19.7325 167.166 20.0347 166.074 20.0347C162.874 20.0347 160.281 17.4411 160.281 14.2418Z" fill="#752B50"/>
<path fill-rule="evenodd" clip-rule="evenodd" d="M198.786 24.1958C197.816 25.1654 196.245 25.1654 195.275 24.1958L189.766 18.6868C188.796 17.7173 188.796 16.1453 189.766 15.1758C190.736 14.2062 192.307 14.2062 193.277 15.1758L198.786 20.6848C199.756 21.6543 199.756 23.2263 198.786 24.1958Z" fill="#752B50"/>
<path fill-rule="evenodd" clip-rule="evenodd" d="M189.246 8.4488C186.046 8.4488 183.453 11.0424 183.453 14.2418C183.453 17.4411 186.046 20.0347 189.246 20.0347C192.445 20.0347 195.039 17.4411 195.039 14.2418C195.039 11.0424 192.445 8.4488 189.246 8.4488ZM178.487 14.2418C178.487 8.30009 183.304 3.4834 189.246 3.4834C195.187 3.4834 200.004 8.30009 200.004 14.2418C200.004 20.1835 195.187 25.0001 189.246 25.0001C183.304 25.0001 178.487 20.1835 178.487 14.2418Z" fill="#752B50"/>
</svg>
