<svg width="143" height="20" viewBox="0 0 143 20" fill="none" xmlns="http://www.w3.org/2000/svg">
<path d="M108.214 10C108.214 4.47715 112.692 0 118.214 0H132.5C138.023 0 142.5 4.47715 142.5 10C142.5 15.5228 138.023 20 132.5 20H118.214C112.692 20 108.214 15.5228 108.214 10Z" fill="#752B4F"/>
<path d="M136.197 12.5C136.735 11.7272 137.05 10.788 137.05 9.775C137.05 7.13784 134.912 5 132.275 5C129.638 5 127.5 7.13784 127.5 9.775C127.5 12.4122 129.638 14.55 132.275 14.55H140.714" stroke="white" stroke-width="2.31609"/>
<path d="M122.5 12.857C121.622 14.0484 120.209 14.8213 118.616 14.8213C115.953 14.8213 113.795 12.6627 113.795 9.9999C113.795 7.33709 115.953 5.17847 118.616 5.17847C121.279 5.17847 123.437 7.33709 123.437 9.9999H114.152" stroke="white" stroke-width="2.31429"/>
<path d="M0 15.7595V0.979498H2.74V15.7595H0Z" fill="white"/>
<path d="M7.69422 15.7595H5.09422V4.8995H7.65422V6.4195C8.23422 5.3195 9.49422 4.6195 11.0742 4.6195C12.2542 4.6195 13.2742 5.0195 14.0942 5.7995C14.9142 6.5795 15.3342 7.6795 15.3342 9.1395V15.7595H12.7142V9.8595C12.7142 8.0395 11.7742 6.9995 10.3342 6.9995C8.79422 6.9995 7.69422 8.1995 7.69422 9.8995V15.7595Z" fill="white"/>
<path d="M23.9714 13.0795L24.7914 15.1195C23.9314 15.7195 22.8714 16.0195 21.6514 16.0195C19.1914 16.0195 17.9314 14.5595 17.9314 11.7795V7.0995H16.1314V4.8995H17.9714V1.0595H20.5514V4.8995H24.1914V7.0995H20.5514V11.6795C20.5514 12.9795 21.0714 13.6395 22.1314 13.6395C22.7314 13.6395 23.3514 13.4595 23.9714 13.0795Z" fill="white"/>
<path d="M39.8786 15.7595H37.2786V4.8995H39.7786V6.3995C40.4386 5.2195 41.4586 4.6195 42.7986 4.6195C43.2586 4.6195 43.6986 4.6995 44.0986 4.8395L43.8786 7.3395C43.4386 7.1995 43.0186 7.1195 42.6186 7.1195C40.9986 7.1195 39.8786 8.1995 39.8786 10.4595V15.7595Z" fill="white"/>
<path d="M52.8897 6.2795V4.8995H55.3697V15.7595H52.8897V14.4195C51.9497 15.4795 50.7697 16.0195 49.3497 16.0195C47.7897 16.0195 46.5097 15.4795 45.4897 14.3795C44.4697 13.2795 43.9697 11.8995 43.9697 10.2795C43.9697 8.6595 44.4697 7.2995 45.4897 6.2395C46.5097 5.1795 47.8097 4.6395 49.3497 4.6395C50.7297 4.6395 51.9097 5.1795 52.8897 6.2795ZM52.9497 10.3195C52.9497 9.3995 52.6497 8.6195 52.0497 7.9795C51.4497 7.3395 50.6897 7.0195 49.7497 7.0195C48.8097 7.0195 48.0497 7.3395 47.4497 7.9795C46.8697 8.6195 46.5697 9.3995 46.5697 10.3195C46.5697 11.2595 46.8697 12.0395 47.4497 12.6795C48.0497 13.3195 48.8097 13.6395 49.7497 13.6395C50.6897 13.6395 51.4497 13.3195 52.0497 12.6795C52.6497 12.0395 52.9497 11.2595 52.9497 10.3195Z" fill="white"/>
<path d="M62.5863 15.9995C60.9063 15.9995 59.5263 15.4595 58.4463 14.3995C57.3863 13.3395 56.8462 11.9795 56.8462 10.3195C56.8462 8.6595 57.3863 7.2995 58.4663 6.2395C59.5463 5.1795 60.9463 4.6395 62.6663 4.6395C64.8863 4.6395 66.8262 5.7195 67.7063 7.6195L65.5863 8.7595C64.9463 7.6995 63.9062 7.0395 62.7063 7.0395C61.7663 7.0395 60.9863 7.3595 60.3662 7.9795C59.7463 8.5995 59.4463 9.3795 59.4463 10.3195C59.4463 11.2595 59.7463 12.0395 60.3463 12.6595C60.9463 13.2795 61.7063 13.5995 62.6263 13.5995C63.8263 13.5995 65.0062 12.9195 65.5462 11.8995L67.6663 13.1395C66.7262 14.8795 64.8063 15.9995 62.5863 15.9995Z" fill="white"/>
<path d="M75.7175 13.0795L76.5375 15.1195C75.6775 15.7195 74.6175 16.0195 73.3975 16.0195C70.9375 16.0195 69.6775 14.5595 69.6775 11.7795V7.0995H67.8775V4.8995H69.7175V1.0595H72.2975V4.8995H77.3661V7.0995H72.2975V11.6795C72.2975 12.9795 72.8175 13.6395 73.8775 13.6395C74.4775 13.6395 75.0975 13.4595 75.7175 13.0795Z" fill="white"/>
<path d="M79.98 4.8995V15.7595H77.36V4.8995H79.98Z" fill="white"/>
<path d="M86.5739 12.1795L89.3939 4.8995H92.2539L87.5139 15.7395H85.5539L80.8339 4.8995H83.7139L86.5739 12.1795Z" fill="white"/>
<path d="M78.6045 0.00731284L79.964 2.36215L77.3661 3.86208L76.0065 1.50731L78.6045 0.00731284Z" fill="white"/>
<path fill-rule="evenodd" clip-rule="evenodd" d="M26.5839 11.3547H36.0714V10.2833C36.0714 7.02872 33.4331 4.39039 30.1786 4.39039C26.924 4.39039 24.2857 7.02872 24.2857 10.2833C24.2857 13.5378 26.924 16.1761 30.1786 16.1761C32.1268 16.1761 33.8541 15.2296 34.9252 13.776L33.2001 12.5048C32.5155 13.4339 31.4171 14.0332 30.1786 14.0332C28.4798 14.0332 27.0449 12.9037 26.5839 11.3547ZM30.1786 6.53325C28.4798 6.53325 27.0449 7.66281 26.5839 9.21182H33.7733C33.3123 7.66281 31.8773 6.53325 30.1786 6.53325Z" fill="white"/>
<path fill-rule="evenodd" clip-rule="evenodd" d="M94.441 11.3547H103.929V10.2833C103.929 7.02872 101.29 4.39039 98.0357 4.39039C94.7812 4.39039 92.1429 7.02872 92.1429 10.2833C92.1429 13.5378 94.7812 16.1761 98.0357 16.1761C99.9839 16.1761 101.711 15.2296 102.782 13.776L101.057 12.5048C100.373 13.4339 99.2743 14.0332 98.0357 14.0332C96.337 14.0332 94.902 12.9037 94.441 11.3547ZM98.0357 6.53325C96.337 6.53325 94.902 7.66281 94.441 9.21182H101.63C101.169 7.66281 99.7345 6.53325 98.0357 6.53325Z" fill="white"/>
</svg>
