<svg width="588" height="469" viewBox="0 0 588 469" fill="none" xmlns="http://www.w3.org/2000/svg">
<rect x="0.5" y="0.5" width="587" height="468" fill="#181015"/>
<rect x="0.5" y="0.5" width="587" height="468" stroke="#242424"/>
<g clip-path="url(#clip0_727_4116)">
<g filter="url(#filter0_f_727_4116)">
<path d="M313.482 235.913C330.283 235.913 343.903 222.293 343.903 205.492C343.903 188.691 330.283 175.071 313.482 175.071C296.682 175.071 283.062 188.691 283.062 205.492C283.062 222.293 296.682 235.913 313.482 235.913Z" fill="url(#paint0_linear_727_4116)" fill-opacity="0.7"/>
</g>
<path d="M320.294 238.558C337.094 238.558 350.714 224.938 350.714 208.137C350.714 191.336 337.094 177.716 320.294 177.716C303.493 177.716 289.874 191.336 289.874 208.137C289.874 224.938 303.493 238.558 320.294 238.558Z" fill="url(#paint1_linear_727_4116)"/>
<g filter="url(#filter1_b_727_4116)">
<path d="M243.341 191.293C240.037 191.293 237.359 193.971 237.359 197.276V288.143C237.359 291.448 240.037 294.126 243.341 294.126H259.592C262.896 294.126 265.575 291.448 265.575 288.143V271.694C265.575 269.74 267.138 268.176 269.092 268.176H297.308C299.262 268.176 300.825 269.74 300.825 271.694V288.143C300.825 291.448 303.503 294.126 306.807 294.126H323.058C326.362 294.126 329.041 291.448 329.041 288.143V197.276C329.041 193.971 326.362 191.293 323.058 191.293H243.341ZM262.058 241.295C262.058 242.947 260.718 244.287 259.066 244.287H250.902C249.25 244.287 247.911 242.947 247.911 241.295V233.131C247.911 231.479 249.25 230.139 250.902 230.139H259.066C260.718 230.139 262.058 231.479 262.058 233.131V241.295ZM262.058 213.001C262.058 214.653 260.718 215.992 259.066 215.992H250.902C249.25 215.992 247.911 214.653 247.911 213.001V204.914C247.911 203.262 249.25 201.923 250.902 201.923H259.066C260.718 201.923 262.058 203.262 262.058 204.914V213.001ZM290.351 241.295C290.351 242.947 289.012 244.287 287.36 244.287H279.196C277.544 244.287 276.204 242.947 276.204 241.295V233.131C276.204 231.479 277.544 230.139 279.196 230.139H287.36C289.012 230.139 290.351 231.479 290.351 233.131V241.295ZM290.351 213.001C290.351 214.653 289.012 215.992 287.36 215.992H279.196C277.544 215.992 276.204 214.653 276.204 213.001V204.914C276.204 203.262 277.544 201.923 279.196 201.923H287.36C289.012 201.923 290.351 203.262 290.351 204.914V213.001ZM318.567 241.295C318.567 242.947 317.228 244.287 315.576 244.287H307.412C305.76 244.287 304.42 242.947 304.42 241.295V233.131C304.42 231.479 305.76 230.139 307.412 230.139H315.576C317.228 230.139 318.567 231.479 318.567 233.131V241.295ZM318.567 213.001C318.567 214.653 317.228 215.992 315.576 215.992H307.412C305.76 215.992 304.42 214.653 304.42 213.001V204.914C304.42 203.262 305.76 201.923 307.412 201.923H315.576C317.228 201.923 318.567 203.262 318.567 204.914V213.001Z" fill="url(#paint2_linear_727_4116)"/>
</g>
<g filter="url(#filter2_b_727_4116)">
<path d="M239.339 197.276C239.339 195.065 241.131 193.273 243.341 193.273H323.058C325.269 193.273 327.061 195.065 327.061 197.276V288.143C327.061 290.354 325.269 292.146 323.058 292.146H306.807C304.597 292.146 302.805 290.354 302.805 288.143V271.694C302.805 268.646 300.355 266.196 297.308 266.196H269.092C266.044 266.196 263.595 268.646 263.595 271.694V288.143C263.595 290.354 261.803 292.146 259.592 292.146H243.341C241.131 292.146 239.339 290.354 239.339 288.143V197.276Z" stroke="url(#paint3_linear_727_4116)" stroke-width="3.96003"/>
</g>
</g>
<defs>
<filter id="filter0_f_727_4116" x="233.562" y="125.571" width="159.841" height="159.843" filterUnits="userSpaceOnUse" color-interpolation-filters="sRGB">
<feFlood flood-opacity="0" result="BackgroundImageFix"/>
<feBlend mode="normal" in="SourceGraphic" in2="BackgroundImageFix" result="shape"/>
<feGaussianBlur stdDeviation="24.7502" result="effect1_foregroundBlur_727_4116"/>
</filter>
<filter id="filter1_b_727_4116" x="210.437" y="164.371" width="145.525" height="156.676" filterUnits="userSpaceOnUse" color-interpolation-filters="sRGB">
<feFlood flood-opacity="0" result="BackgroundImageFix"/>
<feGaussianBlur in="BackgroundImageFix" stdDeviation="13.4608"/>
<feComposite in2="SourceAlpha" operator="in" result="effect1_backgroundBlur_727_4116"/>
<feBlend mode="normal" in="SourceGraphic" in2="effect1_backgroundBlur_727_4116" result="shape"/>
</filter>
<filter id="filter2_b_727_4116" x="210.437" y="164.371" width="145.525" height="156.676" filterUnits="userSpaceOnUse" color-interpolation-filters="sRGB">
<feFlood flood-opacity="0" result="BackgroundImageFix"/>
<feGaussianBlur in="BackgroundImageFix" stdDeviation="13.4608"/>
<feComposite in2="SourceAlpha" operator="in" result="effect1_backgroundBlur_727_4116"/>
<feBlend mode="normal" in="SourceGraphic" in2="effect1_backgroundBlur_727_4116" result="shape"/>
</filter>
<linearGradient id="paint0_linear_727_4116" x1="307.068" y1="177.129" x2="320.387" y2="236.92" gradientUnits="userSpaceOnUse">
<stop stop-color="#0BC7FF"/>
<stop offset="1" stop-color="#DB0EFE"/>
</linearGradient>
<linearGradient id="paint1_linear_727_4116" x1="313.88" y1="179.773" x2="327.199" y2="239.565" gradientUnits="userSpaceOnUse">
<stop stop-color="#0BC7FF"/>
<stop offset="1" stop-color="#DB0EFE"/>
</linearGradient>
<linearGradient id="paint2_linear_727_4116" x1="242.535" y1="288.32" x2="333.159" y2="207.523" gradientUnits="userSpaceOnUse">
<stop stop-color="white" stop-opacity="0.2"/>
<stop offset="1" stop-color="white" stop-opacity="0.49"/>
</linearGradient>
<linearGradient id="paint3_linear_727_4116" x1="243.831" y1="199.381" x2="329.883" y2="281.413" gradientUnits="userSpaceOnUse">
<stop stop-color="white"/>
<stop offset="1" stop-color="white" stop-opacity="0"/>
</linearGradient>
<clipPath id="clip0_727_4116">
<rect width="180" height="180" fill="white" transform="translate(204 144.5)"/>
</clipPath>
</defs>
</svg>
