<svg width="588" height="469" viewBox="0 0 588 469" fill="none" xmlns="http://www.w3.org/2000/svg">
<rect x="0.5" y="0.5" width="587" height="468" fill="#181015"/>
<rect x="0.5" y="0.5" width="587" height="468" stroke="#242424"/>
<g clip-path="url(#clip0_727_4131)">
<g filter="url(#filter0_f_727_4131)">
<path d="M298.026 224.823C301.548 228.346 301.76 234.052 303.561 238.39C305.423 242.888 309.237 247.105 309.237 251.895C309.237 256.686 305.423 260.903 303.561 265.401C301.77 269.739 301.559 275.435 298.026 278.967C294.494 282.5 288.798 282.701 284.46 284.502C279.962 286.364 275.745 290.178 270.955 290.178C266.164 290.178 261.947 286.364 257.449 284.502C253.111 282.711 247.415 282.5 243.883 278.967C240.361 275.445 240.149 269.739 238.348 265.401C236.546 261.064 232.672 256.686 232.672 251.895C232.672 247.105 236.486 242.888 238.348 238.39C240.139 234.052 240.351 228.356 243.883 224.823C247.405 221.301 253.111 221.09 257.449 219.288C261.947 217.427 266.164 213.612 270.955 213.612C275.745 213.612 279.962 217.427 284.46 219.288C288.798 221.08 294.494 221.291 298.026 224.823Z" fill="url(#paint0_linear_727_4131)" fill-opacity="0.7"/>
</g>
<g filter="url(#filter1_f_727_4131)">
<path d="M354.998 201.212C355.109 204.443 352.693 207.231 351.637 210.079C350.53 213.027 350.479 216.711 348.366 218.975C346.253 221.24 342.579 221.552 339.721 222.86C336.954 224.118 334.347 226.724 331.117 226.845C327.886 226.966 325.098 224.541 322.25 223.484C319.402 222.427 315.618 222.326 313.354 220.213C311.09 218.1 310.778 214.426 309.469 211.568C308.211 208.801 305.605 206.194 305.484 202.964C305.373 199.733 307.789 196.945 308.845 194.097C309.952 191.149 310.003 187.465 312.116 185.201C314.23 182.936 317.903 182.624 320.761 181.316C323.518 180.048 326.135 177.442 329.355 177.321C332.576 177.2 335.374 179.625 338.222 180.682C341.07 181.739 344.854 181.839 347.118 183.953C349.382 186.066 349.694 189.74 351.003 192.598C352.261 195.365 354.867 197.972 354.988 201.202L354.998 201.212Z" fill="url(#paint1_linear_727_4131)" fill-opacity="0.7"/>
</g>
<path d="M298.026 224.823C301.548 228.345 301.76 234.051 303.561 238.389C305.423 242.887 309.237 247.104 309.237 251.894C309.237 256.685 305.423 260.902 303.561 265.4C301.77 269.738 301.559 275.434 298.026 278.966C294.494 282.499 288.798 282.7 284.46 284.501C279.962 286.363 275.745 290.177 270.955 290.177C266.164 290.177 261.947 286.363 257.449 284.501C253.111 282.71 247.415 282.499 243.883 278.966C240.361 275.444 240.149 269.738 238.348 265.4C236.546 261.063 232.672 256.685 232.672 251.894C232.672 247.104 236.486 242.887 238.348 238.389C240.139 234.051 240.351 228.355 243.883 224.823C247.405 221.3 253.111 221.089 257.449 219.287C261.947 217.426 266.164 213.611 270.955 213.611C275.745 213.611 279.962 217.426 284.46 219.287C288.798 221.079 294.494 221.29 298.026 224.823Z" fill="url(#paint2_linear_727_4131)"/>
<path d="M354.997 201.211C355.108 204.442 352.692 207.23 351.636 210.078C350.529 213.026 350.478 216.71 348.365 218.974C346.252 221.239 342.578 221.551 339.72 222.859C336.953 224.117 334.346 226.723 331.116 226.844C327.885 226.965 325.098 224.54 322.249 223.483C319.401 222.426 315.617 222.326 313.353 220.212C311.089 218.099 310.777 214.425 309.468 211.567C308.21 208.8 305.604 206.193 305.483 202.963C305.372 199.732 307.788 196.944 308.844 194.096C309.952 191.148 310.002 187.464 312.115 185.2C314.229 182.935 317.902 182.623 320.76 181.315C323.517 180.047 326.134 177.441 329.354 177.32C332.575 177.199 335.373 179.624 338.221 180.681C341.069 181.738 344.853 181.838 347.117 183.952C349.381 186.065 349.693 189.739 351.002 192.597C352.26 195.364 354.866 197.971 354.987 201.201L354.997 201.211Z" fill="url(#paint3_linear_727_4131)"/>
<g filter="url(#filter2_b_727_4131)">
<path d="M345.246 269.282L335.906 259.942C349.593 241.284 348.013 214.916 331.136 198.049C312.508 179.421 282.307 179.421 263.679 198.049C245.05 216.678 245.05 246.879 263.679 265.498C280.062 281.882 305.413 283.844 323.951 271.395L333.541 280.986C336.772 284.216 342.015 284.216 345.246 280.986C348.476 277.755 348.476 272.512 345.246 269.282Z" fill="url(#paint4_linear_727_4131)"/>
<path d="M334.31 258.771L333.305 260.141L334.506 261.342L343.846 270.682C346.303 273.139 346.303 277.129 343.846 279.586C341.388 282.043 337.399 282.043 334.941 279.586L325.351 269.995L324.199 268.843L322.847 269.751C305.079 281.683 280.78 279.799 265.079 264.097L265.078 264.097C247.224 246.252 247.224 217.305 265.079 199.449C282.933 181.594 311.881 181.594 329.736 199.449L329.737 199.45C345.911 215.615 347.428 240.888 334.31 258.771Z" stroke="url(#paint5_linear_727_4131)" stroke-width="3.96001"/>
</g>
</g>
<defs>
<filter id="filter0_f_727_4131" x="183.172" y="164.112" width="175.566" height="175.567" filterUnits="userSpaceOnUse" color-interpolation-filters="sRGB">
<feFlood flood-opacity="0" result="BackgroundImageFix"/>
<feBlend mode="normal" in="SourceGraphic" in2="BackgroundImageFix" result="shape"/>
<feGaussianBlur stdDeviation="24.7501" result="effect1_foregroundBlur_727_4131"/>
</filter>
<filter id="filter1_f_727_4131" x="255.98" y="127.816" width="148.521" height="148.534" filterUnits="userSpaceOnUse" color-interpolation-filters="sRGB">
<feFlood flood-opacity="0" result="BackgroundImageFix"/>
<feBlend mode="normal" in="SourceGraphic" in2="BackgroundImageFix" result="shape"/>
<feGaussianBlur stdDeviation="24.7501" result="effect1_foregroundBlur_727_4131"/>
</filter>
<filter id="filter2_b_727_4131" x="226.932" y="161.302" width="143.513" height="144.883" filterUnits="userSpaceOnUse" color-interpolation-filters="sRGB">
<feFlood flood-opacity="0" result="BackgroundImageFix"/>
<feGaussianBlur in="BackgroundImageFix" stdDeviation="11.388"/>
<feComposite in2="SourceAlpha" operator="in" result="effect1_backgroundBlur_727_4131"/>
<feBlend mode="normal" in="SourceGraphic" in2="effect1_backgroundBlur_727_4131" result="shape"/>
</filter>
<linearGradient id="paint0_linear_727_4131" x1="288.848" y1="222.026" x2="253.302" y2="281.362" gradientUnits="userSpaceOnUse">
<stop stop-color="#10994D"/>
<stop offset="1" stop-color="#00FF79"/>
</linearGradient>
<linearGradient id="paint1_linear_727_4131" x1="351.664" y1="195.759" x2="308.645" y2="208.178" gradientUnits="userSpaceOnUse">
<stop stop-color="#10E4E2"/>
<stop offset="1" stop-color="#00FF79"/>
</linearGradient>
<linearGradient id="paint2_linear_727_4131" x1="288.848" y1="222.025" x2="253.302" y2="281.361" gradientUnits="userSpaceOnUse">
<stop stop-color="#10994D"/>
<stop offset="1" stop-color="#00FF79"/>
</linearGradient>
<linearGradient id="paint3_linear_727_4131" x1="351.663" y1="195.758" x2="308.644" y2="208.177" gradientUnits="userSpaceOnUse">
<stop stop-color="#10E4E2"/>
<stop offset="1" stop-color="#00FF79"/>
</linearGradient>
<linearGradient id="paint4_linear_727_4131" x1="255.238" y1="277.801" x2="343.345" y2="190.909" gradientUnits="userSpaceOnUse">
<stop stop-color="white" stop-opacity="0.2"/>
<stop offset="1" stop-color="white" stop-opacity="0.49"/>
</linearGradient>
<linearGradient id="paint5_linear_727_4131" x1="256.622" y1="191.89" x2="339.723" y2="279.518" gradientUnits="userSpaceOnUse">
<stop stop-color="white"/>
<stop offset="1" stop-color="white" stop-opacity="0"/>
</linearGradient>
<clipPath id="clip0_727_4131">
<rect width="180" height="180" fill="white" transform="translate(204 144.5)"/>
</clipPath>
</defs>
</svg>
