<svg width="1920" height="1081" viewBox="0 0 1920 1081" fill="none" xmlns="http://www.w3.org/2000/svg">
<path fill-rule="evenodd" clip-rule="evenodd" d="M1920 0.671875H0V1080.67H1920V0.671875ZM1120.42 540.673C1120.42 479.222 1170.23 429.406 1231.68 429.406C1293.13 429.406 1342.95 479.222 1342.95 540.673C1342.95 559.809 1338.12 577.816 1329.61 593.543L1302.59 566.521C1287.47 551.407 1262.97 551.407 1247.85 566.521C1232.74 581.635 1232.74 606.14 1247.85 621.253L1271.29 644.685C1258.98 649.372 1245.63 651.939 1231.68 651.939C1170.23 651.939 1120.42 602.123 1120.42 540.673ZM1328.96 702.361C1300.56 719.489 1267.27 729.342 1231.68 729.342C1127.48 729.342 1043.01 644.872 1043.01 540.673C1043.01 436.474 1127.48 352.004 1231.68 352.004C1335.88 352.004 1420.35 436.474 1420.35 540.673C1420.35 581.269 1407.53 618.87 1385.71 649.648L1389.67 653.599C1404.78 668.713 1404.78 693.217 1389.67 708.331C1374.55 723.444 1350.05 723.444 1334.93 708.331L1328.96 702.361ZM504.149 401.504C504.149 376.927 524.072 357.004 548.649 357.004C573.226 357.004 593.149 376.927 593.149 401.504C593.149 426.08 573.226 446.004 548.649 446.004C524.072 446.004 504.149 426.08 504.149 401.504ZM588.149 482.004V726.004H499.649V482.004H588.149ZM714.052 540.673C714.052 479.222 763.868 429.406 825.318 429.406C873.16 429.406 913.949 459.601 929.669 501.972H820.48C799.106 501.972 781.779 519.299 781.779 540.673C781.779 562.047 799.106 579.374 820.48 579.374H1013.99V540.673C1013.99 436.474 929.517 352.004 825.318 352.004C721.119 352.004 636.649 436.474 636.649 540.673C636.649 644.872 721.119 729.342 825.318 729.342C898.507 729.342 961.895 687.658 993.157 626.917L993.579 626.092L994.066 625.127C994.435 624.392 994.798 623.653 995.158 622.913H900.273C880.477 640.966 854.164 651.939 825.318 651.939C763.868 651.939 714.052 602.123 714.052 540.673Z" fill="#150E12"/>
</svg>
