<svg width="56" height="56" viewBox="0 0 56 56" fill="none" xmlns="http://www.w3.org/2000/svg">
<path d="M34.7341 8.30151C36.9748 7.33342 39.5149 8.79996 39.7969 11.2245L40.4624 16.9479C40.5785 17.9455 41.1012 18.8509 41.9071 19.4502L46.5309 22.8883C48.4897 24.3447 48.4897 27.2778 46.5309 28.7343L41.9071 32.1724C41.1012 32.7716 40.5785 33.6771 40.4624 34.6746L39.7969 40.398C39.5149 42.8226 36.9748 44.2891 34.7341 43.321L29.4447 41.0357C28.5227 40.6374 27.4773 40.6374 26.5553 41.0357L21.2659 43.321C19.0252 44.2891 16.4851 42.8226 16.2031 40.3981L15.5376 34.6746C15.4215 33.6771 14.8988 32.7716 14.0929 32.1724L9.46905 28.7343C7.51032 27.2778 7.51032 24.3447 9.46905 22.8883L14.0929 19.4502C14.8988 18.8509 15.4215 17.9455 15.5376 16.9479L16.2031 11.2245C16.4851 8.79997 19.0252 7.33342 21.2659 8.30151L26.5553 10.5868C27.4773 10.9851 28.5227 10.9851 29.4447 10.5868L34.7341 8.30151Z" stroke="#A7A7A7" stroke-width="2"/>
<path d="M32.6773 43.7993C31.2766 48.382 24.789 48.382 23.3882 43.7993L19.6858 31.6862C19.4701 30.9804 19.0963 30.3331 18.593 29.7934L9.95391 20.5304C6.68555 17.026 9.92935 11.4075 14.5984 12.4858L26.94 15.336C27.659 15.502 28.4065 15.502 29.1256 15.336L41.4671 12.4858C46.1362 11.4075 49.38 17.026 46.1117 20.5304L37.4726 29.7934C36.9692 30.3331 36.5955 30.9804 36.3798 31.6862L32.6773 43.7993Z" stroke="#A7A7A7" stroke-width="2"/>
</svg>
