<svg width="56" height="56" viewBox="0 0 56 56" fill="none" xmlns="http://www.w3.org/2000/svg">
<path d="M12.4302 20.3935C12.4302 15.9952 15.9957 12.4297 20.394 12.4297H35.4754C39.8737 12.4297 43.4392 15.9952 43.4392 20.3935V35.4749C43.4392 39.8732 39.8737 43.4387 35.4754 43.4387H20.394C15.9957 43.4387 12.4302 39.8732 12.4302 35.4749V20.3935Z" stroke="#A7A7A7" stroke-width="2"/>
<path d="M23.0748 11.0067C25.1346 6.99776 30.8654 6.99775 32.9252 11.0067L36.2085 17.3969C36.7371 18.4256 37.5744 19.2629 38.6032 19.7915L44.9933 23.0748C49.0022 25.1346 49.0022 30.8654 44.9933 32.9252L38.6031 36.2085C37.5744 36.7371 36.7371 37.5744 36.2085 38.6032L32.9253 44.9933C30.8654 49.0022 25.1346 49.0022 23.0748 44.9933L19.7915 38.6031C19.2629 37.5744 18.4256 36.7371 17.3968 36.2085L11.0067 32.9253C6.99776 30.8654 6.99775 25.1346 11.0067 23.0748L17.3969 19.7915C18.4256 19.2629 19.2629 18.4256 19.7915 17.3968L23.0748 11.0067Z" stroke="#A7A7A7" stroke-width="2"/>
</svg>
