<svg width="56" height="56" viewBox="0 0 56 56" fill="none" xmlns="http://www.w3.org/2000/svg">
<path d="M24.303 10.2569C25.8492 7.2477 30.1508 7.2477 31.697 10.2569L35.8543 18.3482C36.251 19.1204 36.8796 19.749 37.6518 20.1457L45.7431 24.303C48.7523 25.8492 48.7523 30.1508 45.7431 31.697L37.6518 35.8543C36.8796 36.251 36.251 36.8796 35.8543 37.6518L31.697 45.7431C30.1508 48.7523 25.8492 48.7523 24.303 45.7431L20.1457 37.6518C19.749 36.8796 19.1204 36.251 18.3482 35.8543L10.2569 31.697C7.2477 30.1508 7.2477 25.8492 10.2569 24.303L18.3482 20.1457C19.1204 19.749 19.749 19.1204 20.1457 18.3482L24.303 10.2569Z" stroke="#A7A7A7" stroke-width="2"/>
<path d="M39.4848 13.2267C41.591 12.2524 43.7696 14.4309 42.7952 16.5372L37.9717 26.9642C37.6644 27.6284 37.6644 28.394 37.9717 29.0583L42.7952 39.4853C43.7696 41.5915 41.591 43.7701 39.4848 42.7957L29.0578 37.9722C28.3935 37.6649 27.6279 37.6649 26.9637 37.9722L16.5367 42.7957C14.4304 43.7701 12.2519 41.5915 13.2262 39.4853L18.0498 29.0583C18.357 28.394 18.357 27.6284 18.0498 26.9642L13.2262 16.5372C12.2519 14.4309 14.4304 12.2524 16.5367 13.2267L26.9637 18.0502C27.6279 18.3575 28.3935 18.3575 29.0578 18.0502L39.4848 13.2267Z" stroke="#A7A7A7" stroke-width="2"/>
</svg>
