<svg width="97" height="96" viewBox="0 0 97 96" fill="none" xmlns="http://www.w3.org/2000/svg">
<g filter="url(#filter0_b_727_4275)">
<rect x="0.5" width="96" height="96" rx="28" fill="#3A3839" fill-opacity="0.4"/>
</g>
<path d="M68.5 91.6367C68.5 95.8543 59.7696 94.9096 49 94.9096C38.2304 94.9096 29.5 95.8543 29.5 91.6367C29.5 87.4191 38.2304 84 49 84C59.7696 84 68.5 87.4191 68.5 91.6367Z" fill="#C03343"/>
<g filter="url(#filter1_b_727_4275)">
<rect x="0.5" width="96" height="96" rx="28" fill="#3A3839" fill-opacity="0.2"/>
<rect x="1" y="0.5" width="95" height="95" rx="27.5" stroke="url(#paint0_linear_727_4275)"/>
</g>
<path d="M48.5 26.125V31.1562M58.5625 35.349V40.3802M48.5 64.6979V69.7292M48.5 37.8646V57.9896M38.4375 35.349V48.7656M58.5625 47.0885V60.5052M28.375 45.4115V50.4427M38.4375 55.474V60.5052M68.625 45.4115V50.4427" stroke="white" stroke-width="2" stroke-linecap="round" stroke-linejoin="round"/>
<defs>
<filter id="filter0_b_727_4275" x="-6.5" y="-7" width="110" height="110" filterUnits="userSpaceOnUse" color-interpolation-filters="sRGB">
<feFlood flood-opacity="0" result="BackgroundImageFix"/>
<feGaussianBlur in="BackgroundImageFix" stdDeviation="3.5"/>
<feComposite in2="SourceAlpha" operator="in" result="effect1_backgroundBlur_727_4275"/>
<feBlend mode="normal" in="SourceGraphic" in2="effect1_backgroundBlur_727_4275" result="shape"/>
</filter>
<filter id="filter1_b_727_4275" x="-27.5" y="-28" width="152" height="152" filterUnits="userSpaceOnUse" color-interpolation-filters="sRGB">
<feFlood flood-opacity="0" result="BackgroundImageFix"/>
<feGaussianBlur in="BackgroundImageFix" stdDeviation="14"/>
<feComposite in2="SourceAlpha" operator="in" result="effect1_backgroundBlur_727_4275"/>
<feBlend mode="normal" in="SourceGraphic" in2="effect1_backgroundBlur_727_4275" result="shape"/>
</filter>
<linearGradient id="paint0_linear_727_4275" x1="48.5" y1="0" x2="48.5" y2="96" gradientUnits="userSpaceOnUse">
<stop stop-color="#645E61"/>
<stop offset="1" stop-color="#CABEC4" stop-opacity="0"/>
</linearGradient>
</defs>
</svg>
