<svg width="97" height="96" viewBox="0 0 97 96" fill="none" xmlns="http://www.w3.org/2000/svg">
<g filter="url(#filter0_b_727_4294)">
<rect x="0.5" width="96" height="96" rx="28" fill="#3A3839" fill-opacity="0.4"/>
</g>
<path d="M68.5 91.6367C68.5 95.8543 59.7696 94.9096 49 94.9096C38.2304 94.9096 29.5 95.8543 29.5 91.6367C29.5 87.4191 38.2304 84 49 84C59.7696 84 68.5 87.4191 68.5 91.6367Z" fill="#C03343"/>
<g filter="url(#filter1_b_727_4294)">
<rect x="0.5" width="96" height="96" rx="28" fill="#3A3839" fill-opacity="0.2"/>
<rect x="1" y="0.5" width="95" height="95" rx="27.5" stroke="url(#paint0_linear_727_4294)"/>
</g>
<path d="M33.7711 57.2931L33.3484 56.3868L33.7711 57.2931ZM44.1257 54.9974V53.9974V54.9974ZM54.4803 57.2931L54.9029 56.3868L54.4803 57.2931ZM24.3569 69C24.3569 69.5523 24.8046 70 25.3569 70C25.9092 70 26.3569 69.5523 26.3569 69H24.3569ZM61.8944 69C61.8944 69.5523 62.3422 70 62.8944 70C63.4467 70 63.8944 69.5523 63.8944 69H61.8944ZM59.1164 60.1189L59.7282 59.3279L59.1164 60.1189ZM29.135 60.1189L28.5231 59.3279L29.135 60.1189ZM69.6259 43.625C69.6259 43.0727 69.1781 42.625 68.6259 42.625C68.0736 42.625 67.6259 43.0727 67.6259 43.625H69.6259ZM65.0821 48.8641C65.5593 49.1421 66.1715 48.9806 66.4495 48.5033C66.7275 48.0261 66.566 47.4139 66.0887 47.1359L65.0821 48.8641ZM63.8356 45.8234C63.3584 45.5454 62.7462 45.7069 62.4682 46.1842C62.1902 46.6614 62.3517 47.2736 62.8289 47.5516L63.8356 45.8234ZM66.0887 52.3641C66.566 52.0861 66.7275 51.4739 66.4495 50.9967C66.1715 50.5194 65.5593 50.3579 65.0821 50.6359L66.0887 52.3641ZM62.8289 51.9484C62.3517 52.2264 62.1902 52.8386 62.4682 53.3158C62.7462 53.7931 63.3584 53.9546 63.8356 53.6766L62.8289 51.9484ZM67.6259 55.875C67.6259 56.4273 68.0736 56.875 68.6259 56.875C69.1781 56.875 69.6259 56.4273 69.6259 55.875H67.6259ZM72.1695 50.6359C71.6923 50.3579 71.08 50.5194 70.8021 50.9967C70.5241 51.4739 70.6856 52.0861 71.1628 52.3641L72.1695 50.6359ZM73.4159 53.6766C73.8931 53.9546 74.5054 53.7931 74.7833 53.3158C75.0613 52.8386 74.8998 52.2264 74.4226 51.9484L73.4159 53.6766ZM71.1628 47.1359C70.6856 47.4139 70.5241 48.0261 70.8021 48.5033C71.08 48.9806 71.6923 49.1421 72.1695 48.8641L71.1628 47.1359ZM74.4226 47.5516C74.8998 47.2736 75.0613 46.6614 74.7833 46.1842C74.5054 45.7069 73.8931 45.5454 73.4159 45.8234L74.4226 47.5516ZM56.2509 41.875C56.2509 48.5715 50.8223 54 44.1259 54V56C51.9269 56 58.2509 49.676 58.2509 41.875H56.2509ZM44.1259 54C37.4294 54 32.0009 48.5715 32.0009 41.875H30.0009C30.0009 49.676 36.3248 56 44.1259 56V54ZM32.0009 41.875C32.0009 35.1785 37.4294 29.75 44.1259 29.75V27.75C36.3248 27.75 30.0009 34.074 30.0009 41.875H32.0009ZM44.1259 29.75C50.8223 29.75 56.2509 35.1785 56.2509 41.875H58.2509C58.2509 34.074 51.9269 27.75 44.1259 27.75V29.75ZM29.7469 60.9098C31.1201 59.8475 32.6109 58.9375 34.1937 58.1994L33.3484 56.3868C31.6309 57.1878 30.0132 58.1752 28.5231 59.3279L29.7469 60.9098ZM34.1937 58.1994C37.3039 56.749 40.694 55.9974 44.1257 55.9974V53.9974C40.4019 53.9974 36.7233 54.813 33.3484 56.3868L34.1937 58.1994ZM44.1257 55.9974C47.5574 55.9974 50.9475 56.749 54.0577 58.1994L54.9029 56.3868C51.5281 54.813 47.8495 53.9974 44.1257 53.9974V55.9974ZM54.0577 58.1994C55.6405 58.9375 57.1313 59.8475 58.5045 60.9098L59.7282 59.3279C58.2382 58.1752 56.6205 57.1878 54.9029 56.3868L54.0577 58.1994ZM58.5045 60.9098C60.857 62.7296 61.8944 65.7919 61.8944 69H63.8944C63.8944 65.4256 62.7405 61.6581 59.7282 59.3279L58.5045 60.9098ZM28.5231 59.3279C25.5109 61.6581 24.3569 65.4256 24.3569 69H26.3569C26.3569 65.7919 27.3944 62.7296 29.7469 60.9098L28.5231 59.3279ZM71.1259 49.75C71.1259 51.1307 70.0066 52.25 68.6259 52.25V54.25C71.1111 54.25 73.1259 52.2353 73.1259 49.75H71.1259ZM68.6259 52.25C67.2451 52.25 66.1259 51.1307 66.1259 49.75H64.1259C64.1259 52.2353 66.1406 54.25 68.6259 54.25V52.25ZM66.1259 49.75C66.1259 48.3693 67.2451 47.25 68.6259 47.25V45.25C66.1406 45.25 64.1259 47.2647 64.1259 49.75H66.1259ZM68.6259 47.25C70.0066 47.25 71.1259 48.3693 71.1259 49.75H73.1259C73.1259 47.2647 71.1111 45.25 68.6259 45.25V47.25ZM69.6259 46.25V43.625H67.6259V46.25H69.6259ZM66.0887 47.1359L63.8356 45.8234L62.8289 47.5516L65.0821 48.8641L66.0887 47.1359ZM65.0821 50.6359L62.8289 51.9484L63.8356 53.6766L66.0887 52.3641L65.0821 50.6359ZM67.6259 53.25V55.875H69.6259V53.25H67.6259ZM71.1628 52.3641L73.4159 53.6766L74.4226 51.9484L72.1695 50.6359L71.1628 52.3641ZM72.1695 48.8641L74.4226 47.5516L73.4159 45.8234L71.1628 47.1359L72.1695 48.8641Z" fill="white"/>
<defs>
<filter id="filter0_b_727_4294" x="-6.5" y="-7" width="110" height="110" filterUnits="userSpaceOnUse" color-interpolation-filters="sRGB">
<feFlood flood-opacity="0" result="BackgroundImageFix"/>
<feGaussianBlur in="BackgroundImageFix" stdDeviation="3.5"/>
<feComposite in2="SourceAlpha" operator="in" result="effect1_backgroundBlur_727_4294"/>
<feBlend mode="normal" in="SourceGraphic" in2="effect1_backgroundBlur_727_4294" result="shape"/>
</filter>
<filter id="filter1_b_727_4294" x="-27.5" y="-28" width="152" height="152" filterUnits="userSpaceOnUse" color-interpolation-filters="sRGB">
<feFlood flood-opacity="0" result="BackgroundImageFix"/>
<feGaussianBlur in="BackgroundImageFix" stdDeviation="14"/>
<feComposite in2="SourceAlpha" operator="in" result="effect1_backgroundBlur_727_4294"/>
<feBlend mode="normal" in="SourceGraphic" in2="effect1_backgroundBlur_727_4294" result="shape"/>
</filter>
<linearGradient id="paint0_linear_727_4294" x1="48.5" y1="0" x2="48.5" y2="96" gradientUnits="userSpaceOnUse">
<stop stop-color="#645E61"/>
<stop offset="1" stop-color="#CABEC4" stop-opacity="0"/>
</linearGradient>
</defs>
</svg>
