<svg width="97" height="96" viewBox="0 0 97 96" fill="none" xmlns="http://www.w3.org/2000/svg">
<g filter="url(#filter0_b_727_4303)">
<rect x="0.5" width="96" height="96" rx="28" fill="#3A3839" fill-opacity="0.4"/>
</g>
<path d="M68.5 91.6367C68.5 95.8543 59.7696 94.9096 49 94.9096C38.2304 94.9096 29.5 95.8543 29.5 91.6367C29.5 87.4191 38.2304 84 49 84C59.7696 84 68.5 87.4191 68.5 91.6367Z" fill="#C03343"/>
<g filter="url(#filter1_b_727_4303)">
<rect x="0.5" width="96" height="96" rx="28" fill="#3A3839" fill-opacity="0.2"/>
<rect x="1" y="0.5" width="95" height="95" rx="27.5" stroke="url(#paint0_linear_727_4303)"/>
</g>
<path d="M62.9375 62.4375L69.359 68.859M43.25 47.5625L47.0063 51.3188C47.348 51.6605 47.902 51.6605 48.2437 51.3188L55.9375 43.625M69.5 47.125C69.5 58.723 60.098 68.125 48.5 68.125C36.902 68.125 27.5 58.723 27.5 47.125C27.5 35.527 36.902 26.125 48.5 26.125C60.098 26.125 69.5 35.527 69.5 47.125Z" stroke="white" stroke-width="2" stroke-linecap="round" stroke-linejoin="round"/>
<defs>
<filter id="filter0_b_727_4303" x="-6.5" y="-7" width="110" height="110" filterUnits="userSpaceOnUse" color-interpolation-filters="sRGB">
<feFlood flood-opacity="0" result="BackgroundImageFix"/>
<feGaussianBlur in="BackgroundImageFix" stdDeviation="3.5"/>
<feComposite in2="SourceAlpha" operator="in" result="effect1_backgroundBlur_727_4303"/>
<feBlend mode="normal" in="SourceGraphic" in2="effect1_backgroundBlur_727_4303" result="shape"/>
</filter>
<filter id="filter1_b_727_4303" x="-27.5" y="-28" width="152" height="152" filterUnits="userSpaceOnUse" color-interpolation-filters="sRGB">
<feFlood flood-opacity="0" result="BackgroundImageFix"/>
<feGaussianBlur in="BackgroundImageFix" stdDeviation="14"/>
<feComposite in2="SourceAlpha" operator="in" result="effect1_backgroundBlur_727_4303"/>
<feBlend mode="normal" in="SourceGraphic" in2="effect1_backgroundBlur_727_4303" result="shape"/>
</filter>
<linearGradient id="paint0_linear_727_4303" x1="48.5" y1="0" x2="48.5" y2="96" gradientUnits="userSpaceOnUse">
<stop stop-color="#645E61"/>
<stop offset="1" stop-color="#CABEC4" stop-opacity="0"/>
</linearGradient>
</defs>
</svg>
