<svg width="588" height="469" viewBox="0 0 588 469" fill="none" xmlns="http://www.w3.org/2000/svg">
<rect x="0.5" y="0.5" width="587" height="468" fill="#181015"/>
<rect x="0.5" y="0.5" width="587" height="468" stroke="#242424"/>
<g clip-path="url(#clip0_727_4095)">
<g opacity="0.7" filter="url(#filter0_f_727_4095)">
<path d="M330.393 231.775C345.286 231.775 357.36 219.701 357.36 204.808C357.36 189.914 345.286 177.841 330.393 177.841C315.5 177.841 303.427 189.914 303.427 204.808C303.427 219.701 315.5 231.775 330.393 231.775Z" fill="url(#paint0_linear_727_4095)"/>
<path d="M257.606 231.775C272.499 231.775 284.573 219.701 284.573 204.808C284.573 189.914 272.499 177.841 257.606 177.841C242.713 177.841 230.64 189.914 230.64 204.808C230.64 219.701 242.713 231.775 257.606 231.775Z" fill="url(#paint1_linear_727_4095)"/>
</g>
<g filter="url(#filter1_f_727_4095)">
<path d="M297.966 205.822C297.966 203.596 296.162 201.792 293.936 201.792C291.711 201.792 289.907 203.596 289.907 205.822V236.119C289.907 238.344 291.711 240.148 293.936 240.148C296.162 240.148 297.966 238.344 297.966 236.119V205.822Z" fill="white"/>
<path d="M312.663 240.156C314.889 240.156 316.693 238.352 316.693 236.126C316.693 233.901 314.889 232.097 312.663 232.097H293.947C291.721 232.097 289.917 233.901 289.917 236.126C289.917 238.352 291.721 240.156 293.947 240.156H312.663Z" fill="white"/>
</g>
<path d="M330.393 231.768C345.286 231.768 357.36 219.695 357.36 204.801C357.36 189.908 345.286 177.834 330.393 177.834C315.5 177.834 303.427 189.908 303.427 204.801C303.427 219.695 315.5 231.768 330.393 231.768Z" fill="url(#paint2_linear_727_4095)"/>
<path d="M257.606 231.768C272.499 231.768 284.573 219.695 284.573 204.801C284.573 189.908 272.499 177.834 257.606 177.834C242.713 177.834 230.64 189.908 230.64 204.801C230.64 219.695 242.713 231.768 257.606 231.768Z" fill="url(#paint3_linear_727_4095)"/>
<g filter="url(#filter2_b_727_4095)">
<path d="M328.834 269.223C337.36 260.463 342.62 248.502 342.62 235.31C342.62 208.449 320.85 186.678 293.989 186.678C267.129 186.678 245.358 208.449 245.358 235.31C245.358 248.502 250.618 260.463 259.144 269.223L254.245 279.477C252.304 283.539 254.022 288.406 258.083 290.357C262.145 292.298 267.012 290.58 268.963 286.519L272.569 278.979C279.037 282.16 286.301 283.952 293.989 283.952C301.677 283.952 308.941 282.16 315.41 278.979L319.015 286.519C320.956 290.58 325.823 292.298 329.895 290.357C333.956 288.417 335.674 283.549 333.734 279.477L328.834 269.223Z" fill="url(#paint4_linear_727_4095)"/>
<path d="M327.416 267.842L326.453 268.831L327.048 270.076L331.946 280.329C333.418 283.417 332.114 287.101 329.043 288.57C325.954 290.042 322.27 288.737 320.802 285.665L320.801 285.664L317.196 278.125L316.332 276.318L314.536 277.202C308.332 280.253 301.366 281.972 293.989 281.972C286.612 281.972 279.647 280.253 273.443 277.202L271.646 276.318L270.782 278.125L267.179 285.661C267.178 285.662 267.178 285.663 267.177 285.663C265.698 288.74 262.012 290.039 258.939 288.572C255.861 287.092 254.563 283.404 256.031 280.331L256.031 280.331L260.93 270.076L261.525 268.831L260.563 267.842C252.382 259.436 247.338 247.964 247.338 235.31C247.338 209.542 268.222 188.658 293.989 188.658C319.756 188.658 340.64 209.542 340.64 235.31C340.64 247.964 335.597 259.436 327.416 267.842Z" stroke="url(#paint5_linear_727_4095)" stroke-width="3.96005"/>
</g>
<path d="M297.966 205.815C297.966 203.589 296.162 201.785 293.936 201.785C291.711 201.785 289.907 203.589 289.907 205.815V236.112C289.907 238.337 291.711 240.141 293.936 240.141C296.162 240.141 297.966 238.337 297.966 236.112V205.815Z" fill="white"/>
<path d="M312.663 240.149C314.889 240.149 316.693 238.345 316.693 236.12C316.693 233.894 314.889 232.09 312.663 232.09H293.947C291.721 232.09 289.917 233.894 289.917 236.12C289.917 238.345 291.721 240.149 293.947 240.149H312.663Z" fill="white"/>
</g>
<defs>
<filter id="filter0_f_727_4095" x="181.139" y="128.34" width="225.721" height="152.936" filterUnits="userSpaceOnUse" color-interpolation-filters="sRGB">
<feFlood flood-opacity="0" result="BackgroundImageFix"/>
<feBlend mode="normal" in="SourceGraphic" in2="BackgroundImageFix" result="shape"/>
<feGaussianBlur stdDeviation="24.7503" result="effect1_foregroundBlur_727_4095"/>
</filter>
<filter id="filter1_f_727_4095" x="230.855" y="142.741" width="144.889" height="156.467" filterUnits="userSpaceOnUse" color-interpolation-filters="sRGB">
<feFlood flood-opacity="0" result="BackgroundImageFix"/>
<feBlend mode="normal" in="SourceGraphic" in2="BackgroundImageFix" result="shape"/>
<feGaussianBlur stdDeviation="29.5257" result="effect1_foregroundBlur_727_4095"/>
</filter>
<filter id="filter2_b_727_4095" x="233.28" y="174.599" width="121.419" height="128.636" filterUnits="userSpaceOnUse" color-interpolation-filters="sRGB">
<feFlood flood-opacity="0" result="BackgroundImageFix"/>
<feGaussianBlur in="BackgroundImageFix" stdDeviation="6.03935"/>
<feComposite in2="SourceAlpha" operator="in" result="effect1_backgroundBlur_727_4095"/>
<feBlend mode="normal" in="SourceGraphic" in2="effect1_backgroundBlur_727_4095" result="shape"/>
</filter>
<linearGradient id="paint0_linear_727_4095" x1="235.539" y1="224.097" x2="363.298" y2="198.118" gradientUnits="userSpaceOnUse">
<stop stop-color="#3B3BF9"/>
<stop offset="0.51" stop-color="#10E0F9"/>
<stop offset="1" stop-color="#92FFFF"/>
</linearGradient>
<linearGradient id="paint1_linear_727_4095" x1="232.654" y1="209.887" x2="360.414" y2="183.908" gradientUnits="userSpaceOnUse">
<stop stop-color="#3B3BF9"/>
<stop offset="0.51" stop-color="#10E0F9"/>
<stop offset="1" stop-color="#92FFFF"/>
</linearGradient>
<linearGradient id="paint2_linear_727_4095" x1="235.539" y1="224.091" x2="363.298" y2="198.111" gradientUnits="userSpaceOnUse">
<stop stop-color="#3B3BF9"/>
<stop offset="0.51" stop-color="#10E0F9"/>
<stop offset="1" stop-color="#92FFFF"/>
</linearGradient>
<linearGradient id="paint3_linear_727_4095" x1="232.654" y1="209.881" x2="360.414" y2="183.901" gradientUnits="userSpaceOnUse">
<stop stop-color="#3B3BF9"/>
<stop offset="0.51" stop-color="#10E0F9"/>
<stop offset="1" stop-color="#92FFFF"/>
</linearGradient>
<linearGradient id="paint4_linear_727_4095" x1="250.849" y1="285.257" x2="343.294" y2="199.198" gradientUnits="userSpaceOnUse">
<stop stop-color="white" stop-opacity="0.2"/>
<stop offset="1" stop-color="white" stop-opacity="0.49"/>
</linearGradient>
<linearGradient id="paint5_linear_727_4095" x1="252.224" y1="194.895" x2="339.753" y2="282.019" gradientUnits="userSpaceOnUse">
<stop stop-color="white"/>
<stop offset="1" stop-color="white" stop-opacity="0"/>
</linearGradient>
<clipPath id="clip0_727_4095">
<rect width="180" height="180" fill="white" transform="translate(204 144.5)"/>
</clipPath>
</defs>
</svg>
