<svg width="300" height="300" viewBox="0 0 300 300" fill="none" xmlns="http://www.w3.org/2000/svg">
<path d="M100.948 202.439L145.487 142.567C147.736 139.543 152.264 139.543 154.513 142.567L199.052 202.439C202.444 206.999 197.706 213.139 192.435 211.013L158.415 197.294C153.016 195.116 146.984 195.116 141.585 197.294L107.565 211.013C102.294 213.139 97.5558 206.999 100.948 202.439Z" fill="url(#paint0_linear_1224_39154)"/>
<g filter="url(#filter0_bi_1224_39154)">
<path d="M93.996 166.506L143.344 92.4846C146.51 87.7347 153.49 87.7347 156.656 92.4846L206.004 166.506C210.124 172.686 204.332 180.656 197.182 178.645L152.166 165.984C150.749 165.586 149.251 165.586 147.834 165.984L102.818 178.645C95.6685 180.656 89.8761 172.686 93.996 166.506Z" fill="#E7E7E7" fill-opacity="0.2"/>
</g>
<g filter="url(#filter1_d_1224_39154)">
<path d="M140 149.688L149.686 146.479C149.89 146.412 150.11 146.412 150.314 146.479L160 149.688" stroke="white" stroke-width="7.2" stroke-linecap="round"/>
</g>
<defs>
<filter id="filter0_bi_1224_39154" x="70.1222" y="66.4219" width="159.756" height="135.041" filterUnits="userSpaceOnUse" color-interpolation-filters="sRGB">
<feFlood flood-opacity="0" result="BackgroundImageFix"/>
<feGaussianBlur in="BackgroundImageFix" stdDeviation="11.25"/>
<feComposite in2="SourceAlpha" operator="in" result="effect1_backgroundBlur_1224_39154"/>
<feBlend mode="normal" in="SourceGraphic" in2="effect1_backgroundBlur_1224_39154" result="shape"/>
<feColorMatrix in="SourceAlpha" type="matrix" values="0 0 0 0 0 0 0 0 0 0 0 0 0 0 0 0 0 0 127 0" result="hardAlpha"/>
<feOffset dy="1.125"/>
<feGaussianBlur stdDeviation="5.625"/>
<feComposite in2="hardAlpha" operator="arithmetic" k2="-1" k3="1"/>
<feColorMatrix type="matrix" values="0 0 0 0 0 0 0 0 0 0 0 0 0 0 0 0 0 0 0.2 0"/>
<feBlend mode="normal" in2="shape" result="effect2_innerShadow_1224_39154"/>
</filter>
<filter id="filter1_d_1224_39154" x="129.199" y="137.428" width="41.6019" height="24.8609" filterUnits="userSpaceOnUse" color-interpolation-filters="sRGB">
<feFlood flood-opacity="0" result="BackgroundImageFix"/>
<feColorMatrix in="SourceAlpha" type="matrix" values="0 0 0 0 0 0 0 0 0 0 0 0 0 0 0 0 0 0 127 0" result="hardAlpha"/>
<feOffset dy="1.8"/>
<feGaussianBlur stdDeviation="3.6"/>
<feComposite in2="hardAlpha" operator="out"/>
<feColorMatrix type="matrix" values="0 0 0 0 0 0 0 0 0 0 0 0 0 0 0 0 0 0 0.05 0"/>
<feBlend mode="normal" in2="BackgroundImageFix" result="effect1_dropShadow_1224_39154"/>
<feBlend mode="normal" in="SourceGraphic" in2="effect1_dropShadow_1224_39154" result="shape"/>
</filter>
<linearGradient id="paint0_linear_1224_39154" x1="89" y1="136.5" x2="164.928" y2="249.466" gradientUnits="userSpaceOnUse">
<stop stop-color="#0EA470"/>
<stop offset="1" stop-color="#0ECC9A"/>
</linearGradient>
</defs>
</svg>
