<svg width="300" height="300" viewBox="0 0 300 300" fill="none" xmlns="http://www.w3.org/2000/svg">
<g filter="url(#filter0_f_1224_39140)">
<path d="M206.54 109.26C220.757 123.477 220.749 146.558 206.54 160.767L165.654 201.653C157.413 209.894 144.045 209.894 135.805 201.653L99.2138 165.062L155.024 109.252C169.241 95.0347 192.323 95.043 206.532 109.252L206.54 109.26Z" fill="url(#paint0_linear_1224_39140)" fill-opacity="0.2"/>
</g>
<path d="M206.54 109.26C220.757 123.477 220.749 146.558 206.54 160.767L165.654 201.653C157.413 209.894 144.045 209.894 135.805 201.653C115.596 181.444 115.596 148.68 135.805 128.471L155.024 109.252C169.241 95.0347 192.323 95.043 206.532 109.252L206.54 109.26Z" fill="url(#paint1_linear_1224_39140)"/>
<g filter="url(#filter1_bi_1224_39140)">
<path d="M94.9055 109.263C109.122 95.0466 132.204 95.0549 146.413 109.263L202.223 165.074L165.632 201.665C157.392 209.905 144.024 209.905 135.783 201.665L94.8972 160.779C80.6802 146.562 80.6886 123.48 94.8972 109.272L94.9055 109.263Z" fill="#FBF2F3" fill-opacity="0.4"/>
</g>
<defs>
<filter id="filter0_f_1224_39140" x="42.9639" y="42.3419" width="230.486" height="221.742" filterUnits="userSpaceOnUse" color-interpolation-filters="sRGB">
<feFlood flood-opacity="0" result="BackgroundImageFix"/>
<feBlend mode="normal" in="SourceGraphic" in2="BackgroundImageFix" result="shape"/>
<feGaussianBlur stdDeviation="28.125" result="effect1_foregroundBlur_1224_39140"/>
</filter>
<filter id="filter1_bi_1224_39140" x="61.7376" y="76.1035" width="162.986" height="154.242" filterUnits="userSpaceOnUse" color-interpolation-filters="sRGB">
<feFlood flood-opacity="0" result="BackgroundImageFix"/>
<feGaussianBlur in="BackgroundImageFix" stdDeviation="11.25"/>
<feComposite in2="SourceAlpha" operator="in" result="effect1_backgroundBlur_1224_39140"/>
<feBlend mode="normal" in="SourceGraphic" in2="effect1_backgroundBlur_1224_39140" result="shape"/>
<feColorMatrix in="SourceAlpha" type="matrix" values="0 0 0 0 0 0 0 0 0 0 0 0 0 0 0 0 0 0 127 0" result="hardAlpha"/>
<feOffset dy="1.125"/>
<feGaussianBlur stdDeviation="5.625"/>
<feComposite in2="hardAlpha" operator="arithmetic" k2="-1" k3="1"/>
<feColorMatrix type="matrix" values="0 0 0 0 0 0 0 0 0 0 0 0 0 0 0 0 0 0 0.2 0"/>
<feBlend mode="normal" in2="shape" result="effect2_innerShadow_1224_39140"/>
</filter>
<linearGradient id="paint0_linear_1224_39140" x1="211.463" y1="108.384" x2="123.106" y2="189.714" gradientUnits="userSpaceOnUse">
<stop stop-color="#E73542"/>
<stop offset="1" stop-color="#7C1F3F"/>
</linearGradient>
<linearGradient id="paint1_linear_1224_39140" x1="119.904" y1="200.086" x2="114.982" y2="95.3394" gradientUnits="userSpaceOnUse">
<stop stop-color="#460E3C"/>
<stop offset="1" stop-color="#E13D44"/>
</linearGradient>
</defs>
</svg>
