<svg width="588" height="469" viewBox="0 0 588 469" fill="none" xmlns="http://www.w3.org/2000/svg">
<rect x="0.5" y="0.5" width="587" height="468" fill="#181015"/>
<rect x="0.5" y="0.5" width="587" height="468" stroke="#242424"/>
<g clip-path="url(#clip0_727_4113)">
<g filter="url(#filter0_f_727_4113)">
<path d="M290.324 244.245L263.457 264.09C261.78 265.327 260.793 267.289 260.793 269.38V286.829C260.793 292.206 266.877 295.304 271.189 292.12L294.189 275.127L317.19 292.12C321.502 295.304 327.585 292.206 327.585 286.829V269.38C327.585 267.289 326.599 265.327 324.922 264.09L298.055 244.245C295.752 242.545 292.62 242.545 290.324 244.245Z" fill="url(#paint0_linear_727_4113)" fill-opacity="0.7"/>
</g>
<path d="M290.324 244.245L263.457 264.09C261.78 265.327 260.793 267.289 260.793 269.38V286.829C260.793 292.206 266.877 295.304 271.189 292.12L294.189 275.127L317.19 292.12C321.502 295.304 327.585 292.206 327.585 286.829V269.38C327.585 267.289 326.599 265.327 324.922 264.09L298.055 244.245C295.752 242.545 292.62 242.545 290.324 244.245Z" fill="url(#paint1_linear_727_4113)"/>
<g filter="url(#filter1_b_727_4113)">
<path d="M293.849 268.232C319.547 268.232 340.379 247.399 340.379 221.701C340.379 196.003 319.547 175.171 293.849 175.171C268.151 175.171 247.319 196.003 247.319 221.701C247.319 247.399 268.151 268.232 293.849 268.232Z" fill="url(#paint2_linear_727_4113)"/>
<path d="M338.399 221.701C338.399 246.306 318.453 266.252 293.849 266.252C269.245 266.252 249.299 246.306 249.299 221.701C249.299 197.097 269.245 177.151 293.849 177.151C318.453 177.151 338.399 197.097 338.399 221.701Z" stroke="url(#paint3_linear_727_4113)" stroke-width="3.96002"/>
</g>
<path d="M324.813 221.413C324.813 229.744 321.497 237.3 316.114 242.834" stroke="white" stroke-width="7.37388" stroke-linecap="round"/>
</g>
<defs>
<filter id="filter0_f_727_4113" x="211.293" y="193.469" width="165.792" height="149.436" filterUnits="userSpaceOnUse" color-interpolation-filters="sRGB">
<feFlood flood-opacity="0" result="BackgroundImageFix"/>
<feBlend mode="normal" in="SourceGraphic" in2="BackgroundImageFix" result="shape"/>
<feGaussianBlur stdDeviation="24.7501" result="effect1_foregroundBlur_727_4113"/>
</filter>
<filter id="filter1_b_727_4113" x="221.454" y="149.306" width="144.789" height="144.79" filterUnits="userSpaceOnUse" color-interpolation-filters="sRGB">
<feFlood flood-opacity="0" result="BackgroundImageFix"/>
<feGaussianBlur in="BackgroundImageFix" stdDeviation="12.9323"/>
<feComposite in2="SourceAlpha" operator="in" result="effect1_backgroundBlur_727_4113"/>
<feBlend mode="normal" in="SourceGraphic" in2="effect1_backgroundBlur_727_4113" result="shape"/>
</filter>
<linearGradient id="paint0_linear_727_4113" x1="294.931" y1="295.094" x2="292.668" y2="243.95" gradientUnits="userSpaceOnUse">
<stop stop-color="#EA1C39"/>
<stop offset="1" stop-color="#F37322"/>
</linearGradient>
<linearGradient id="paint1_linear_727_4113" x1="294.931" y1="295.094" x2="292.668" y2="243.95" gradientUnits="userSpaceOnUse">
<stop stop-color="#EA1C39"/>
<stop offset="1" stop-color="#F37322"/>
</linearGradient>
<linearGradient id="paint2_linear_727_4113" x1="252.573" y1="262.978" x2="335.126" y2="180.426" gradientUnits="userSpaceOnUse">
<stop stop-color="white" stop-opacity="0.2"/>
<stop offset="1" stop-color="white" stop-opacity="0.49"/>
</linearGradient>
<linearGradient id="paint3_linear_727_4113" x1="253.888" y1="182.49" x2="331.678" y2="265.665" gradientUnits="userSpaceOnUse">
<stop stop-color="white"/>
<stop offset="1" stop-color="white" stop-opacity="0"/>
</linearGradient>
<clipPath id="clip0_727_4113">
<rect width="180" height="180" fill="white" transform="translate(204 144.5)"/>
</clipPath>
</defs>
</svg>
