<svg width="588" height="469" viewBox="0 0 588 469" fill="none" xmlns="http://www.w3.org/2000/svg">
<rect x="0.5" y="0.5" width="587" height="468" fill="#181015"/>
<rect x="0.5" y="0.5" width="587" height="468" stroke="#242424"/>
<g clip-path="url(#clip0_727_4134)">
<g filter="url(#filter0_f_727_4134)">
<path d="M342.603 198.367C355.114 210.878 355.107 231.191 342.603 243.695L306.623 279.675C299.372 286.927 287.608 286.927 280.356 279.675L248.156 247.474L297.269 198.36C309.78 185.849 330.092 185.856 342.596 198.36L342.603 198.367Z" fill="url(#paint0_linear_727_4134)" fill-opacity="0.7"/>
</g>
<path d="M342.603 198.366C355.114 210.877 355.107 231.19 342.603 243.694L306.623 279.674C299.372 286.926 287.608 286.926 280.356 279.674L248.156 247.473L297.269 198.359C309.78 185.848 330.092 185.855 342.596 198.359L342.603 198.366Z" fill="url(#paint1_linear_727_4134)"/>
<g filter="url(#filter1_b_727_4134)">
<path d="M244.367 198.365C256.878 185.854 277.19 185.861 289.694 198.365L338.807 247.479L306.607 279.68C299.355 286.932 287.591 286.932 280.34 279.68L244.36 243.7C231.849 231.189 231.856 210.876 244.36 198.372L244.367 198.365Z" fill="url(#paint2_linear_727_4134)"/>
<path d="M245.767 199.765C257.505 188.028 276.563 188.034 288.293 199.765L336.007 247.479L305.207 278.28C298.728 284.759 288.218 284.759 281.74 278.28L245.76 242.3C234.023 230.562 234.029 211.503 245.76 199.773L245.767 199.765Z" stroke="url(#paint3_linear_727_4134)" stroke-width="3.96004"/>
</g>
</g>
<defs>
<filter id="filter0_f_727_4134" x="198.656" y="139.479" width="202.828" height="195.136" filterUnits="userSpaceOnUse" color-interpolation-filters="sRGB">
<feFlood flood-opacity="0" result="BackgroundImageFix"/>
<feBlend mode="normal" in="SourceGraphic" in2="BackgroundImageFix" result="shape"/>
<feGaussianBlur stdDeviation="24.7502" result="effect1_foregroundBlur_727_4134"/>
</filter>
<filter id="filter1_b_727_4134" x="212.386" y="166.391" width="149.014" height="141.322" filterUnits="userSpaceOnUse" color-interpolation-filters="sRGB">
<feFlood flood-opacity="0" result="BackgroundImageFix"/>
<feGaussianBlur in="BackgroundImageFix" stdDeviation="11.2967"/>
<feComposite in2="SourceAlpha" operator="in" result="effect1_backgroundBlur_727_4134"/>
<feBlend mode="normal" in="SourceGraphic" in2="effect1_backgroundBlur_727_4134" result="shape"/>
</filter>
<linearGradient id="paint0_linear_727_4134" x1="346.935" y1="197.597" x2="269.179" y2="269.166" gradientUnits="userSpaceOnUse">
<stop stop-color="#F26DFF"/>
<stop offset="1" stop-color="#FF027A"/>
</linearGradient>
<linearGradient id="paint1_linear_727_4134" x1="346.935" y1="197.596" x2="269.179" y2="269.165" gradientUnits="userSpaceOnUse">
<stop stop-color="#F26DFF"/>
<stop offset="1" stop-color="#FF027A"/>
</linearGradient>
<linearGradient id="paint2_linear_727_4134" x1="291.98" y1="286.202" x2="313.162" y2="192.393" gradientUnits="userSpaceOnUse">
<stop stop-color="white" stop-opacity="0.2"/>
<stop offset="1" stop-color="white" stop-opacity="0.49"/>
</linearGradient>
<linearGradient id="paint3_linear_727_4134" x1="230.542" y1="223.481" x2="323.99" y2="205.371" gradientUnits="userSpaceOnUse">
<stop stop-color="white"/>
<stop offset="1" stop-color="white" stop-opacity="0"/>
</linearGradient>
<clipPath id="clip0_727_4134">
<rect width="180" height="180" fill="white" transform="translate(204 144.5)"/>
</clipPath>
</defs>
</svg>
