<svg width="56" height="56" viewBox="0 0 56 56" fill="none" xmlns="http://www.w3.org/2000/svg">
<path d="M26.5507 15.2887C27.4008 14.6221 28.5962 14.6221 29.4463 15.2887V15.2887C30.0339 15.7496 30.8059 15.9032 31.5251 15.7023V15.7023C32.5656 15.4116 33.67 15.8691 34.2002 16.8103V16.8103C34.5668 17.461 35.2212 17.8983 35.9626 17.9879V17.9879C37.0351 18.1176 37.8804 18.9629 38.0101 20.0353V20.0353C38.0997 20.7768 38.537 21.4312 39.1876 21.7977V21.7977C40.1289 22.328 40.5863 23.4324 40.2957 24.4728V24.4728C40.0948 25.1921 40.2484 25.9641 40.7092 26.5517V26.5517C41.3759 27.4018 41.3759 28.5972 40.7092 29.4472V29.4472C40.2484 30.0349 40.0948 30.8068 40.2957 31.5261V31.5261C40.5863 32.5666 40.1289 33.671 39.1876 34.2012V34.2012C38.537 34.5678 38.0997 35.2222 38.0101 35.9636V35.9636C37.8804 37.0361 37.0351 37.8814 35.9626 38.011V38.011C35.2212 38.1007 34.5668 38.538 34.2002 39.1886V39.1886C33.67 40.1298 32.5656 40.5873 31.5251 40.2967V40.2967C30.8059 40.0958 30.0339 40.2493 29.4463 40.7102V40.7102C28.5962 41.3769 27.4008 41.3769 26.5507 40.7102V40.7102C25.9631 40.2493 25.1911 40.0958 24.4719 40.2967V40.2967C23.4314 40.5873 22.327 40.1298 21.7968 39.1886V39.1886C21.4302 38.538 20.7758 38.1007 20.0344 38.011V38.011C18.9619 37.8814 18.1166 37.0361 17.9869 35.9636V35.9636C17.8973 35.2222 17.46 34.5678 16.8093 34.2012V34.2012C15.8681 33.671 15.4107 32.5666 15.7013 31.5261V31.5261C15.9022 30.8068 15.7486 30.0349 15.2878 29.4472V29.4472C14.6211 28.5972 14.6211 27.4018 15.2878 26.5517V26.5517C15.7486 25.9641 15.9022 25.1921 15.7013 24.4728V24.4728C15.4107 23.4324 15.8681 22.328 16.8093 21.7977V21.7977C17.46 21.4312 17.8973 20.7768 17.9869 20.0353V20.0353C18.1166 18.9629 18.9619 18.1176 20.0344 17.9879V17.9879C20.7758 17.8983 21.4302 17.461 21.7968 16.8103V16.8103C22.327 15.8691 23.4314 15.4116 24.4719 15.7023V15.7023C25.1911 15.9032 25.9631 15.7496 26.5507 15.2887V15.2887Z" stroke="#A7A7A7" stroke-width="2"/>
<path d="M25.9088 9.64005C27.1366 8.67709 28.8634 8.67709 30.0912 9.64005V9.64005C30.94 10.3057 32.0551 10.5275 33.094 10.2373V10.2373C34.5969 9.81757 36.1922 10.4784 36.9581 11.8379V11.8379C37.4875 12.7777 38.4328 13.4094 39.5037 13.5388V13.5388C41.0529 13.7262 42.2738 14.9471 42.4612 16.4963V16.4963C42.5906 17.5672 43.2223 18.5125 44.1621 19.0419V19.0419C45.5216 19.8078 46.1824 21.4031 45.7627 22.906V22.906C45.4725 23.9449 45.6943 25.06 46.3599 25.9088V25.9088C47.3229 27.1366 47.3229 28.8634 46.3599 30.0912V30.0912C45.6943 30.94 45.4725 32.0551 45.7627 33.094V33.094C46.1824 34.5969 45.5216 36.1922 44.1621 36.9581V36.9581C43.2223 37.4875 42.5906 38.4328 42.4612 39.5037V39.5037C42.2738 41.0529 41.0529 42.2738 39.5037 42.4612V42.4612C38.4328 42.5906 37.4875 43.2223 36.9581 44.1621V44.1621C36.1922 45.5216 34.5969 46.1824 33.094 45.7627V45.7627C32.0551 45.4725 30.94 45.6943 30.0912 46.3599V46.3599C28.8634 47.3229 27.1366 47.3229 25.9088 46.3599V46.3599C25.06 45.6943 23.9449 45.4725 22.906 45.7627V45.7627C21.4031 46.1824 19.8078 45.5216 19.0419 44.1621V44.1621C18.5125 43.2223 17.5672 42.5906 16.4963 42.4612V42.4612C14.9471 42.2738 13.7262 41.0529 13.5388 39.5037V39.5037C13.4094 38.4328 12.7777 37.4875 11.8379 36.9581V36.9581C10.4784 36.1922 9.81757 34.5969 10.2373 33.094V33.094C10.5275 32.0551 10.3057 30.94 9.64005 30.0912V30.0912C8.67709 28.8634 8.67709 27.1366 9.64005 25.9088V25.9088C10.3057 25.06 10.5275 23.9449 10.2373 22.906V22.906C9.81757 21.4031 10.4784 19.8078 11.8379 19.0419V19.0419C12.7777 18.5125 13.4094 17.5672 13.5388 16.4963V16.4963C13.7262 14.9471 14.9471 13.7262 16.4963 13.5388V13.5388C17.5672 13.4094 18.5125 12.7777 19.0419 11.8379V11.8379C19.8078 10.4784 21.4031 9.81757 22.906 10.2373V10.2373C23.9449 10.5275 25.06 10.3057 25.9088 9.64005V9.64005Z" stroke="#A7A7A7" stroke-width="2"/>
</svg>
