<svg width="56" height="56" viewBox="0 0 56 56" fill="none" xmlns="http://www.w3.org/2000/svg">
<g clip-path="url(#clip0_727_4201)">
<path d="M36.6573 12.8757C40.7698 10.9847 45.0154 15.2303 43.1244 19.3428C40.5977 24.8378 40.5977 31.1624 43.1244 36.6574C45.0154 40.7699 40.7698 45.0154 36.6573 43.1245C31.1623 40.5978 24.8377 40.5978 19.3427 43.1245C15.2302 45.0154 10.9846 40.7699 12.8756 36.6574C15.4023 31.1624 15.4023 24.8378 12.8756 19.3428C10.9846 15.2303 15.2302 10.9847 19.3427 12.8757C24.8377 15.4024 31.1623 15.4024 36.6573 12.8757Z" stroke="#A7A7A7" stroke-width="2"/>
<path d="M44.9318 19.5642C46.3252 19.9269 46.9609 21.5423 46.1883 22.7573L43.3401 27.2367C42.9128 27.9087 42.8976 28.7634 43.3007 29.4502L45.9879 34.028C46.7168 35.2698 46.0241 36.8615 44.6186 37.1744L39.4371 38.3278C38.6598 38.5009 38.0447 39.0944 37.8442 39.8651L36.5073 45.0023C36.1446 46.3957 34.5292 47.0314 33.3142 46.2589L28.8348 43.4106C28.1628 42.9833 27.3081 42.9681 26.6213 43.3712L22.0435 46.0584C20.8017 46.7873 19.21 46.0946 18.8971 44.6891L17.7437 39.5077C17.5706 38.7303 16.9771 38.1153 16.2064 37.9147L11.0692 36.5778C9.67576 36.2151 9.04005 34.5998 9.81265 33.3847L12.6609 28.9053C13.0882 28.2333 13.1034 27.3786 12.7003 26.6919L10.0131 22.114C9.28417 20.8722 9.97691 19.2805 11.3824 18.9676L16.5638 17.8142C17.3412 17.6412 17.9562 17.0476 18.1568 16.2769L19.4937 11.1398C19.8564 9.74628 21.4717 9.11058 22.6868 9.88318L27.1662 12.7314C27.8382 13.1587 28.6929 13.1739 29.3796 12.7708L33.9575 10.0836C35.1993 9.3547 36.791 10.0474 37.1039 11.4529L38.2573 16.6344C38.4303 17.4117 39.0239 18.0268 39.7946 18.2273L44.9318 19.5642Z" stroke="#A7A7A7" stroke-width="2"/>
</g>
<defs>
<clipPath id="clip0_727_4201">
<rect width="56" height="56" fill="white"/>
</clipPath>
</defs>
</svg>
