<svg width="56" height="56" viewBox="0 0 56 56" fill="none" xmlns="http://www.w3.org/2000/svg">
<path d="M21.9539 10.5044C25.2931 7.16521 30.7069 7.16521 34.0461 10.5044L45.4956 21.9539C48.8348 25.2931 48.8348 30.7069 45.4956 34.0461L34.0461 45.4956C30.7069 48.8348 25.2931 48.8348 21.9539 45.4956L10.5044 34.0461C7.16521 30.7069 7.16521 25.2931 10.5044 21.9539L21.9539 10.5044Z" stroke="#A7A7A7" stroke-width="2"/>
<path d="M26.2197 9.35525C26.9244 7.65893 29.3274 7.65893 30.0321 9.35525L32.0927 14.3153C32.5295 15.3665 33.7348 15.8657 34.7869 15.4312L39.7512 13.381C41.449 12.6799 43.1482 14.379 42.447 16.0768L40.3968 21.0411C39.9623 22.0933 40.4616 23.2985 41.5128 23.7353L46.4728 25.7959C48.1691 26.5006 48.1691 28.9036 46.4728 29.6083L41.5128 31.6689C40.4616 32.1056 39.9623 33.3109 40.3968 34.363L42.447 39.3274C43.1482 41.0252 41.449 42.7243 39.7512 42.0232L34.7869 39.973C33.7348 39.5385 32.5295 40.0377 32.0927 41.0889L30.0321 46.0489C29.3274 47.7453 26.9244 47.7453 26.2197 46.0489L24.1591 41.0889C23.7224 40.0377 22.5171 39.5385 21.465 39.973L16.5006 42.0232C14.8028 42.7243 13.1037 41.0252 13.8048 39.3274L15.855 34.363C16.2895 33.3109 15.7903 32.1056 14.7391 31.6689L9.77908 29.6083C8.08276 28.9036 8.08276 26.5006 9.77908 25.7959L14.7391 23.7353C15.7903 23.2985 16.2895 22.0933 15.855 21.0411L13.8048 16.0768C13.1037 14.379 14.8028 12.6799 16.5006 13.381L21.465 15.4312C22.5171 15.8657 23.7224 15.3665 24.1591 14.3153L26.2197 9.35525Z" stroke="#A7A7A7" stroke-width="2"/>
</svg>
