<svg width="97" height="96" viewBox="0 0 97 96" fill="none" xmlns="http://www.w3.org/2000/svg">
<g filter="url(#filter0_b_727_4241)">
<rect x="0.5" width="96" height="96" rx="28" fill="#3A3839" fill-opacity="0.4"/>
</g>
<path d="M68.5 91.6367C68.5 95.8543 59.7696 94.9096 49 94.9096C38.2304 94.9096 29.5 95.8543 29.5 91.6367C29.5 87.4191 38.2304 84 49 84C59.7696 84 68.5 87.4191 68.5 91.6367Z" fill="#C03343"/>
<g filter="url(#filter1_b_727_4241)">
<rect x="0.5" width="96" height="96" rx="28" fill="#3A3839" fill-opacity="0.2"/>
<rect x="1" y="0.5" width="95" height="95" rx="27.5" stroke="url(#paint0_linear_727_4241)"/>
</g>
<path d="M70 57.3338V38.6671C69.9992 37.8487 69.7831 37.045 69.3736 36.3365C68.964 35.628 68.3754 35.0396 67.6667 34.6304L51.3333 25.2971C50.6239 24.8875 49.8192 24.6719 49 24.6719C48.1808 24.6719 47.3761 24.8875 46.6667 25.2971L30.3333 34.6304C29.6246 35.0396 29.036 35.628 28.6264 36.3365C28.2169 37.045 28.0008 37.8487 28 38.6671V57.3338C28.0008 58.1521 28.2169 58.9559 28.6264 59.6644C29.036 60.3729 29.6246 60.9612 30.3333 61.3704L46.6667 70.7038C47.3761 71.1133 48.1808 71.329 49 71.329C49.8192 71.329 50.6239 71.1133 51.3333 70.7038L67.6667 61.3704C68.3754 60.9612 68.964 60.3729 69.3736 59.6644C69.7831 58.9559 69.9992 58.1521 70 57.3338Z" stroke="white" stroke-width="2" stroke-linecap="round" stroke-linejoin="round"/>
<path d="M38.5 29.8242L49 35.8909L59.5 29.8242" stroke="white" stroke-width="2" stroke-linecap="round" stroke-linejoin="round"/>
<path d="M38.5 66.1767V54.0667L28 48" stroke="white" stroke-width="2" stroke-linecap="round" stroke-linejoin="round"/>
<path d="M70 48L59.5 54.0667V66.1767" stroke="white" stroke-width="2" stroke-linecap="round" stroke-linejoin="round"/>
<path d="M28.6309 36.2402L49.0009 48.0236L69.3709 36.2402" stroke="white" stroke-width="2" stroke-linecap="round" stroke-linejoin="round"/>
<path d="M49 71.52V48" stroke="white" stroke-width="2" stroke-linecap="round" stroke-linejoin="round"/>
<defs>
<filter id="filter0_b_727_4241" x="-6.5" y="-7" width="110" height="110" filterUnits="userSpaceOnUse" color-interpolation-filters="sRGB">
<feFlood flood-opacity="0" result="BackgroundImageFix"/>
<feGaussianBlur in="BackgroundImageFix" stdDeviation="3.5"/>
<feComposite in2="SourceAlpha" operator="in" result="effect1_backgroundBlur_727_4241"/>
<feBlend mode="normal" in="SourceGraphic" in2="effect1_backgroundBlur_727_4241" result="shape"/>
</filter>
<filter id="filter1_b_727_4241" x="-27.5" y="-28" width="152" height="152" filterUnits="userSpaceOnUse" color-interpolation-filters="sRGB">
<feFlood flood-opacity="0" result="BackgroundImageFix"/>
<feGaussianBlur in="BackgroundImageFix" stdDeviation="14"/>
<feComposite in2="SourceAlpha" operator="in" result="effect1_backgroundBlur_727_4241"/>
<feBlend mode="normal" in="SourceGraphic" in2="effect1_backgroundBlur_727_4241" result="shape"/>
</filter>
<linearGradient id="paint0_linear_727_4241" x1="48.5" y1="0" x2="48.5" y2="96" gradientUnits="userSpaceOnUse">
<stop stop-color="#645E61"/>
<stop offset="1" stop-color="#CABEC4" stop-opacity="0"/>
</linearGradient>
</defs>
</svg>
